%TF.GenerationSoftware,KiCad,Pcbnew,(6.0.5)*%
%TF.CreationDate,2024-03-24T17:12:35+02:00*%
%TF.ProjectId,Sensor Subsystem,53656e73-6f72-4205-9375-627379737465,rev?*%
%TF.SameCoordinates,Original*%
%TF.FileFunction,Legend,Bot*%
%TF.FilePolarity,Positive*%
%FSLAX46Y46*%
G04 Gerber Fmt 4.6, Leading zero omitted, Abs format (unit mm)*
G04 Created by KiCad (PCBNEW (6.0.5)) date 2024-03-24 17:12:35*
%MOMM*%
%LPD*%
G01*
G04 APERTURE LIST*
G04 Aperture macros list*
%AMRotRect*
0 Rectangle, with rotation*
0 The origin of the aperture is its center*
0 $1 length*
0 $2 width*
0 $3 Rotation angle, in degrees counterclockwise*
0 Add horizontal line*
21,1,$1,$2,0,0,$3*%
G04 Aperture macros list end*
%ADD10RotRect,1.800000X1.800000X250.000000*%
%ADD11C,1.800000*%
%ADD12R,1.700000X1.700000*%
%ADD13O,1.700000X1.700000*%
%ADD14C,1.320800*%
%ADD15R,1.320800X1.320800*%
%ADD16R,1.800000X1.800000*%
%ADD17RotRect,1.800000X1.800000X110.000000*%
G04 APERTURE END LIST*
%LPC*%
D10*
%TO.C,U3*%
X11061200Y41357568D03*
D11*
X10192469Y38970749D03*
%TD*%
D12*
%TO.C,J1*%
X3388200Y2789000D03*
D13*
X3388200Y5329000D03*
X5928200Y2789000D03*
X5928200Y5329000D03*
X8468200Y2789000D03*
X8468200Y5329000D03*
X11008200Y2789000D03*
X11008200Y5329000D03*
X13548200Y2789000D03*
X13548200Y5329000D03*
X16088200Y2789000D03*
X16088200Y5329000D03*
X18628200Y2789000D03*
X18628200Y5329000D03*
X21168200Y2789000D03*
X21168200Y5329000D03*
X23708200Y2789000D03*
X23708200Y5329000D03*
X26248200Y2789000D03*
X26248200Y5329000D03*
X28788200Y2789000D03*
X28788200Y5329000D03*
X31328200Y2789000D03*
X31328200Y5329000D03*
X33868200Y2789000D03*
X33868200Y5329000D03*
X36408200Y2789000D03*
X36408200Y5329000D03*
%TD*%
D14*
%TO.C,RV1*%
X38303200Y16040100D03*
X38303200Y18580100D03*
D15*
X38303200Y21120100D03*
%TD*%
D14*
%TO.C,RV2*%
X15825200Y16205200D03*
X15825200Y18745200D03*
D15*
X15825200Y21285200D03*
%TD*%
D16*
%TO.C,U2*%
X24445000Y40075000D03*
D11*
X21905000Y40075000D03*
%TD*%
D17*
%TO.C,CR1*%
X32000951Y32761352D03*
D11*
X31132220Y35148171D03*
%TD*%
D17*
%TO.C,U1*%
X29760951Y38941352D03*
D11*
X28892220Y41328171D03*
%TD*%
D14*
%TO.C,RV3*%
X508000Y16141700D03*
X508000Y18681700D03*
D15*
X508000Y21221700D03*
%TD*%
D10*
%TO.C,CR3*%
X8841200Y35207568D03*
D11*
X7972469Y32820749D03*
%TD*%
D16*
%TO.C,CR2*%
X17935000Y40095000D03*
D11*
X15395000Y40095000D03*
%TD*%
M02*
