%TF.GenerationSoftware,KiCad,Pcbnew,(6.0.5)*%
%TF.CreationDate,2024-03-24T17:12:35+02:00*%
%TF.ProjectId,Sensor Subsystem,53656e73-6f72-4205-9375-627379737465,rev?*%
%TF.SameCoordinates,Original*%
%TF.FileFunction,Copper,L2,Bot*%
%TF.FilePolarity,Positive*%
%FSLAX46Y46*%
G04 Gerber Fmt 4.6, Leading zero omitted, Abs format (unit mm)*
G04 Created by KiCad (PCBNEW (6.0.5)) date 2024-03-24 17:12:35*
%MOMM*%
%LPD*%
G01*
G04 APERTURE LIST*
G04 Aperture macros list*
%AMRotRect*
0 Rectangle, with rotation*
0 The origin of the aperture is its center*
0 $1 length*
0 $2 width*
0 $3 Rotation angle, in degrees counterclockwise*
0 Add horizontal line*
21,1,$1,$2,0,0,$3*%
G04 Aperture macros list end*
%TA.AperFunction,ComponentPad*%
%ADD10RotRect,1.800000X1.800000X250.000000*%
%TD*%
%TA.AperFunction,ComponentPad*%
%ADD11C,1.800000*%
%TD*%
%TA.AperFunction,ComponentPad*%
%ADD12R,1.700000X1.700000*%
%TD*%
%TA.AperFunction,ComponentPad*%
%ADD13O,1.700000X1.700000*%
%TD*%
%TA.AperFunction,ComponentPad*%
%ADD14C,1.320800*%
%TD*%
%TA.AperFunction,ComponentPad*%
%ADD15R,1.320800X1.320800*%
%TD*%
%TA.AperFunction,ComponentPad*%
%ADD16R,1.800000X1.800000*%
%TD*%
%TA.AperFunction,ComponentPad*%
%ADD17RotRect,1.800000X1.800000X110.000000*%
%TD*%
%TA.AperFunction,ViaPad*%
%ADD18C,0.800000*%
%TD*%
%TA.AperFunction,Conductor*%
%ADD19C,0.250000*%
%TD*%
G04 APERTURE END LIST*
D10*
%TO.P,U3,1,E*%
%TO.N,Net-(C9-Pad1)*%
X11061200Y41357568D03*
D11*
%TO.P,U3,2,C*%
%TO.N,/VDD1*%
X10192469Y38970749D03*
%TD*%
D12*
%TO.P,J1,1,Pin_1*%
%TO.N,unconnected-(J1-Pad1)*%
X3388200Y2789000D03*
D13*
%TO.P,J1,2,Pin_2*%
%TO.N,unconnected-(J1-Pad2)*%
X3388200Y5329000D03*
%TO.P,J1,3,Pin_3*%
%TO.N,GND*%
X5928200Y2789000D03*
%TO.P,J1,4,Pin_4*%
%TO.N,/BATT1*%
X5928200Y5329000D03*
%TO.P,J1,5,Pin_5*%
%TO.N,/PA3*%
X8468200Y2789000D03*
%TO.P,J1,6,Pin_6*%
%TO.N,unconnected-(J1-Pad6)*%
X8468200Y5329000D03*
%TO.P,J1,7,Pin_7*%
%TO.N,/PA4*%
X11008200Y2789000D03*
%TO.P,J1,8,Pin_8*%
%TO.N,unconnected-(J1-Pad8)*%
X11008200Y5329000D03*
%TO.P,J1,9,Pin_9*%
%TO.N,GND*%
X13548200Y2789000D03*
%TO.P,J1,10,Pin_10*%
%TO.N,/PE14*%
X13548200Y5329000D03*
%TO.P,J1,11,Pin_11*%
%TO.N,/PA5*%
X16088200Y2789000D03*
%TO.P,J1,12,Pin_12*%
%TO.N,/PE13*%
X16088200Y5329000D03*
%TO.P,J1,13,Pin_13*%
%TO.N,unconnected-(J1-Pad13)*%
X18628200Y2789000D03*
%TO.P,J1,14,Pin_14*%
%TO.N,/PE12*%
X18628200Y5329000D03*
%TO.P,J1,15,Pin_15*%
%TO.N,GND*%
X21168200Y2789000D03*
%TO.P,J1,16,Pin_16*%
%TO.N,/PE11*%
X21168200Y5329000D03*
%TO.P,J1,17,Pin_17*%
%TO.N,unconnected-(J1-Pad17)*%
X23708200Y2789000D03*
%TO.P,J1,18,Pin_18*%
%TO.N,/PE10*%
X23708200Y5329000D03*
%TO.P,J1,19,Pin_19*%
%TO.N,unconnected-(J1-Pad19)*%
X26248200Y2789000D03*
%TO.P,J1,20,Pin_20*%
%TO.N,unconnected-(J1-Pad20)*%
X26248200Y5329000D03*
%TO.P,J1,21,Pin_21*%
%TO.N,GND*%
X28788200Y2789000D03*
%TO.P,J1,22,Pin_22*%
%TO.N,/PE8*%
X28788200Y5329000D03*
%TO.P,J1,23,Pin_23*%
%TO.N,unconnected-(J1-Pad23)*%
X31328200Y2789000D03*
%TO.P,J1,24,Pin_24*%
%TO.N,unconnected-(J1-Pad24)*%
X31328200Y5329000D03*
%TO.P,J1,25,Pin_25*%
%TO.N,unconnected-(J1-Pad25)*%
X33868200Y2789000D03*
%TO.P,J1,26,Pin_26*%
%TO.N,/BATT2*%
X33868200Y5329000D03*
%TO.P,J1,27,Pin_27*%
%TO.N,GND*%
X36408200Y2789000D03*
%TO.P,J1,28,Pin_28*%
%TO.N,unconnected-(J1-Pad28)*%
X36408200Y5329000D03*
%TD*%
D14*
%TO.P,RV1,1,1*%
%TO.N,unconnected-(RV1-Pad1)*%
X38303200Y16040100D03*
%TO.P,RV1,2,2*%
%TO.N,GND*%
X38303200Y18580100D03*
D15*
%TO.P,RV1,3,3*%
%TO.N,Net-(R16-Pad1)*%
X38303200Y21120100D03*
%TD*%
D14*
%TO.P,RV2,1,1*%
%TO.N,unconnected-(RV2-Pad1)*%
X15825200Y16205200D03*
%TO.P,RV2,2,2*%
%TO.N,GND*%
X15825200Y18745200D03*
D15*
%TO.P,RV2,3,3*%
%TO.N,Net-(R17-Pad1)*%
X15825200Y21285200D03*
%TD*%
D16*
%TO.P,U2,1,E*%
%TO.N,Net-(C8-Pad1)*%
X24445000Y40075000D03*
D11*
%TO.P,U2,2,C*%
%TO.N,/VDD2*%
X21905000Y40075000D03*
%TD*%
D17*
%TO.P,CR1,1*%
%TO.N,Net-(CR1-Pad1)*%
X32000951Y32761352D03*
D11*
%TO.P,CR1,2*%
%TO.N,Net-(CR1-Pad2)*%
X31132220Y35148171D03*
%TD*%
D17*
%TO.P,U1,1,E*%
%TO.N,Net-(C7-Pad1)*%
X29760951Y38941352D03*
D11*
%TO.P,U1,2,C*%
%TO.N,/VDD1*%
X28892220Y41328171D03*
%TD*%
D14*
%TO.P,RV3,1,1*%
%TO.N,unconnected-(RV3-Pad1)*%
X508000Y16141700D03*
%TO.P,RV3,2,2*%
%TO.N,GND*%
X508000Y18681700D03*
D15*
%TO.P,RV3,3,3*%
%TO.N,Net-(R18-Pad1)*%
X508000Y21221700D03*
%TD*%
D10*
%TO.P,CR3,1*%
%TO.N,Net-(CR3-Pad1)*%
X8841200Y35207568D03*
D11*
%TO.P,CR3,2*%
%TO.N,Net-(CR3-Pad2)*%
X7972469Y32820749D03*
%TD*%
D16*
%TO.P,CR2,1*%
%TO.N,Net-(CR2-Pad1)*%
X17935000Y40095000D03*
D11*
%TO.P,CR2,2*%
%TO.N,Net-(CR2-Pad2)*%
X15395000Y40095000D03*
%TD*%
D18*
%TO.N,Net-(R18-Pad1)*%
X4690000Y22170000D03*
%TO.N,Net-(CR3-Pad2)*%
X5020000Y30790000D03*
X3630000Y28390000D03*
%TO.N,/PE13*%
X-5040000Y15890000D03*
%TO.N,/PA3*%
X31420000Y17230000D03*
%TO.N,Net-(C8-Pad1)*%
X23090000Y23570000D03*
%TO.N,Net-(CR2-Pad2)*%
X23270000Y29160000D03*
%TO.N,Net-(CR1-Pad2)*%
X34230000Y26880000D03*
%TD*%
D19*
%TO.N,Net-(R18-Pad1)*%
X3741700Y21221700D02*
X4690000Y22170000D01*
X508000Y21221700D02*
X3741700Y21221700D01*
%TO.N,Net-(CR3-Pad2)*%
X5020000Y29780000D02*
X5020000Y30790000D01*
X3630000Y28390000D02*
X5020000Y29780000D01*
%TO.N,/PA3*%
X28868190Y17230000D02*
X31420000Y17230000D01*
X17453689Y5815499D02*
X28868190Y17230000D01*
X16574699Y4154489D02*
X17453689Y5033479D01*
X17453689Y5033479D02*
X17453689Y5815499D01*
X8468200Y2789000D02*
X9833689Y4154489D01*
X9833689Y4154489D02*
X16574699Y4154489D01*
%TO.N,/PE13*%
X4287200Y17130000D02*
X-3800000Y17130000D01*
X-3800000Y17130000D02*
X-5040000Y15890000D01*
X16088200Y5329000D02*
X4287200Y17130000D01*
%TO.N,Net-(C8-Pad1)*%
X24445000Y24925000D02*
X23090000Y23570000D01*
X24445000Y40075000D02*
X24445000Y24925000D01*
%TO.N,Net-(CR2-Pad2)*%
X15395000Y37035000D02*
X23270000Y29160000D01*
X15395000Y40095000D02*
X15395000Y37035000D01*
%TO.N,Net-(CR1-Pad2)*%
X30232220Y30877780D02*
X34230000Y26880000D01*
X30232220Y34248171D02*
X30232220Y30877780D01*
X31132220Y35148171D02*
X30232220Y34248171D01*
%TD*%
%TA.AperFunction,Conductor*%
%TO.N,GND*%
G36*
X20330618Y49861661D02*
G01*
X20974863Y49850370D01*
X20979225Y49850217D01*
X21511220Y49822223D01*
X22062326Y49793223D01*
X22066731Y49792914D01*
X22773069Y49730867D01*
X23147197Y49698002D01*
X23151563Y49697540D01*
X24228017Y49564827D01*
X24232347Y49564216D01*
X25150834Y49418143D01*
X25303503Y49393863D01*
X25307851Y49393093D01*
X26372342Y49185317D01*
X26376623Y49184404D01*
X27433263Y48939436D01*
X27437518Y48938371D01*
X28355257Y48691419D01*
X28484845Y48656549D01*
X28489089Y48655327D01*
X29525934Y48336969D01*
X29530086Y48335613D01*
X30374683Y48043526D01*
X30555130Y47981122D01*
X30559277Y47979606D01*
X31571279Y47589409D01*
X31575330Y47587765D01*
X32302877Y47277542D01*
X32573024Y47162353D01*
X32577055Y47160550D01*
X33559237Y46700435D01*
X33563158Y46698514D01*
X34528605Y46204270D01*
X34532473Y46202204D01*
X35205299Y45827445D01*
X35480035Y45674419D01*
X35483854Y45672203D01*
X36242072Y45214355D01*
X36412300Y45111563D01*
X36416040Y45109214D01*
X37324265Y44516388D01*
X37327920Y44513910D01*
X38214828Y43889613D01*
X38218394Y43887008D01*
X39082876Y43232021D01*
X39086348Y43229293D01*
X39927336Y42544426D01*
X39930711Y42541578D01*
X40332216Y42190506D01*
X40738301Y41835430D01*
X40747188Y41827659D01*
X40750457Y41824699D01*
X41276108Y41331525D01*
X41541446Y41082581D01*
X41544613Y41079503D01*
X42309077Y40310158D01*
X42312134Y40306972D01*
X43049199Y39511281D01*
X43052142Y39507989D01*
X43239542Y39290895D01*
X43760846Y38686990D01*
X43763634Y38683645D01*
X44443196Y37838240D01*
X44445870Y37834792D01*
X44851187Y37292703D01*
X45095365Y36966128D01*
X45097946Y36962546D01*
X45716573Y36071702D01*
X45719027Y36068032D01*
X46165865Y35373853D01*
X46306058Y35156057D01*
X46308383Y35152303D01*
X46863110Y34220296D01*
X46865301Y34216462D01*
X47387025Y33265599D01*
X47389076Y33261702D01*
X47497557Y33046431D01*
X47813738Y32418997D01*
X47827216Y32361891D01*
X47810835Y27251556D01*
X47771140Y14867801D01*
X47763531Y12494096D01*
X47743311Y12426040D01*
X47689507Y12379719D01*
X47637532Y12368500D01*
X40207640Y12368500D01*
X40206688Y12368504D01*
X40206034Y12368509D01*
X40131017Y12369076D01*
X40102129Y12360865D01*
X40085561Y12357340D01*
X40055813Y12353080D01*
X40035630Y12343903D01*
X40032859Y12342643D01*
X40015154Y12336143D01*
X39999541Y12331706D01*
X39999537Y12331704D01*
X39990909Y12329252D01*
X39983314Y12324475D01*
X39983311Y12324474D01*
X39965493Y12313267D01*
X39950563Y12305225D01*
X39931388Y12296507D01*
X39931386Y12296506D01*
X39923218Y12292792D01*
X39904611Y12276759D01*
X39904115Y12276332D01*
X39888949Y12265126D01*
X39867610Y12251706D01*
X39861656Y12244984D01*
X39847702Y12229230D01*
X39835631Y12217323D01*
X39819672Y12203572D01*
X39819670Y12203569D01*
X39812873Y12197713D01*
X39807994Y12190186D01*
X39807990Y12190181D01*
X39799158Y12176554D01*
X39787745Y12161540D01*
X39771031Y12142671D01*
X39758230Y12115508D01*
X39749986Y12100691D01*
X39738530Y12083018D01*
X39738528Y12083014D01*
X39733648Y12075485D01*
X39731077Y12066888D01*
X39726423Y12051326D01*
X39719685Y12033719D01*
X39708937Y12010912D01*
X39707543Y12002045D01*
X39707542Y12002041D01*
X39704271Y11981236D01*
X39700518Y11964705D01*
X39691914Y11935934D01*
X39691859Y11926957D01*
X39691859Y11926956D01*
X39691704Y11901644D01*
X39691683Y11901147D01*
X39691558Y11900351D01*
X39691555Y11898115D01*
X39691515Y11870954D01*
X39691513Y11870369D01*
X39691218Y11822053D01*
X39691024Y11790279D01*
X39691324Y11789230D01*
X39691395Y11788173D01*
X39690784Y11366920D01*
X39675219Y634317D01*
X39655118Y566226D01*
X39601395Y519811D01*
X39549219Y508500D01*
X637718Y508500D01*
X569597Y528502D01*
X523104Y582158D01*
X511720Y635137D01*
X541743Y6569863D01*
X568442Y11847327D01*
X568960Y11901268D01*
X569130Y11918971D01*
X569130Y11918972D01*
X569216Y11927947D01*
X561326Y11955924D01*
X557779Y11972892D01*
X555030Y11992800D01*
X553803Y12001691D01*
X543083Y12025588D01*
X536782Y12042943D01*
X529677Y12068136D01*
X524914Y12075743D01*
X524913Y12075746D01*
X514253Y12092771D01*
X506085Y12108065D01*
X497861Y12126399D01*
X497861Y12126400D01*
X494187Y12134589D01*
X477197Y12154510D01*
X466278Y12169400D01*
X457146Y12183986D01*
X457141Y12183991D01*
X452382Y12191593D01*
X445678Y12197555D01*
X445675Y12197559D01*
X430662Y12210911D01*
X418528Y12223299D01*
X405491Y12238585D01*
X399667Y12245414D01*
X392161Y12250333D01*
X392159Y12250335D01*
X377770Y12259765D01*
X363108Y12270992D01*
X343543Y12288393D01*
X326416Y12296507D01*
X317277Y12300837D01*
X302158Y12309319D01*
X296134Y12313267D01*
X277841Y12325256D01*
X269252Y12327872D01*
X269248Y12327874D01*
X252794Y12332886D01*
X235564Y12339550D01*
X220030Y12346909D01*
X220027Y12346910D01*
X211911Y12350755D01*
X183191Y12355330D01*
X166322Y12359223D01*
X138503Y12367696D01*
X103919Y12368082D01*
X102801Y12368134D01*
X101385Y12368359D01*
X69431Y12368471D01*
X68611Y12368476D01*
X-7145Y12369322D01*
X-8813Y12368854D01*
X-10468Y12368748D01*
X-4652825Y12384924D01*
X-7916046Y12396295D01*
X-7984097Y12416534D01*
X-8030402Y12470351D01*
X-8041607Y12522233D01*
X-8042772Y14925928D01*
X-8043240Y15890000D01*
X-5953504Y15890000D01*
X-5952814Y15883435D01*
X-5938221Y15744594D01*
X-5933542Y15700072D01*
X-5874527Y15518444D01*
X-5779040Y15353056D01*
X-5774622Y15348149D01*
X-5774621Y15348148D01*
X-5667702Y15229402D01*
X-5651253Y15211134D01*
X-5603941Y15176760D01*
X-5508982Y15107768D01*
X-5496752Y15098882D01*
X-5490724Y15096198D01*
X-5490722Y15096197D01*
X-5328501Y15023972D01*
X-5322288Y15021206D01*
X-5251540Y15006168D01*
X-5141944Y14982872D01*
X-5141939Y14982872D01*
X-5135487Y14981500D01*
X-4944513Y14981500D01*
X-4938061Y14982872D01*
X-4938056Y14982872D01*
X-4828460Y15006168D01*
X-4757712Y15021206D01*
X-4751499Y15023972D01*
X-4589278Y15096197D01*
X-4589276Y15096198D01*
X-4583248Y15098882D01*
X-4571017Y15107768D01*
X-4476059Y15176760D01*
X-4428747Y15211134D01*
X-4412298Y15229402D01*
X-4305379Y15348148D01*
X-4305378Y15348149D01*
X-4300960Y15353056D01*
X-4205473Y15518444D01*
X-4146458Y15700072D01*
X-4141778Y15744594D01*
X-4129093Y15865292D01*
X-4102080Y15930949D01*
X-4092878Y15941218D01*
X-3574499Y16459596D01*
X-3512187Y16493621D01*
X-3485404Y16496500D01*
X-768942Y16496500D01*
X-700821Y16476498D01*
X-654328Y16422842D01*
X-643815Y16355691D01*
X-665506Y16172429D01*
X-651455Y15958060D01*
X-598574Y15749841D01*
X-508634Y15554746D01*
X-384647Y15379308D01*
X-352660Y15348148D01*
X-243124Y15241443D01*
X-230764Y15229402D01*
X-225968Y15226197D01*
X-225965Y15226195D01*
X-56945Y15113260D01*
X-56940Y15113257D01*
X-52140Y15110050D01*
X-46831Y15107769D01*
X-46829Y15107768D01*
X139932Y15027528D01*
X139936Y15027527D01*
X145242Y15025247D01*
X150874Y15023973D01*
X150876Y15023972D01*
X349137Y14979110D01*
X349142Y14979109D01*
X354774Y14977835D01*
X360545Y14977608D01*
X360547Y14977608D01*
X426614Y14975012D01*
X569438Y14969401D01*
X694168Y14987486D01*
X776321Y14999397D01*
X776325Y14999398D01*
X782043Y15000227D01*
X787515Y15002085D01*
X787517Y15002085D01*
X980007Y15067427D01*
X980009Y15067428D01*
X985471Y15069282D01*
X1172909Y15174252D01*
X1223160Y15216045D01*
X1333640Y15307931D01*
X1338078Y15311622D01*
X1475448Y15476791D01*
X1580418Y15664229D01*
X1607699Y15744594D01*
X1647615Y15862183D01*
X1647615Y15862185D01*
X1649473Y15867657D01*
X1653665Y15896565D01*
X1674476Y16040100D01*
X1680299Y16080262D01*
X1681908Y16141700D01*
X1662251Y16355628D01*
X1664063Y16355795D01*
X1670459Y16418150D01*
X1714737Y16473647D01*
X1787102Y16496500D01*
X3972606Y16496500D01*
X4040727Y16476498D01*
X4061701Y16459595D01*
X13618286Y6903010D01*
X13652312Y6840698D01*
X13647247Y6769883D01*
X13604700Y6713047D01*
X13538180Y6688236D01*
X13527659Y6687924D01*
X13480162Y6688505D01*
X13458280Y6688772D01*
X13458278Y6688772D01*
X13453111Y6688835D01*
X13232291Y6655045D01*
X13019956Y6585643D01*
X12821807Y6482493D01*
X12817674Y6479390D01*
X12817671Y6479388D01*
X12650678Y6354006D01*
X12643165Y6348365D01*
X12488829Y6186862D01*
X12381401Y6029379D01*
X12326493Y5984379D01*
X12255968Y5976208D01*
X12192221Y6007462D01*
X12171524Y6031946D01*
X12091022Y6156383D01*
X12091020Y6156386D01*
X12088214Y6160723D01*
X11937870Y6325949D01*
X11933819Y6329148D01*
X11933815Y6329152D01*
X11766614Y6461200D01*
X11766610Y6461202D01*
X11762559Y6464402D01*
X11566989Y6572362D01*
X11562120Y6574086D01*
X11562116Y6574088D01*
X11361287Y6645205D01*
X11361283Y6645206D01*
X11356412Y6646931D01*
X11351319Y6647838D01*
X11351316Y6647839D01*
X11141573Y6685200D01*
X11141567Y6685201D01*
X11136484Y6686106D01*
X11062652Y6687008D01*
X10918281Y6688772D01*
X10918279Y6688772D01*
X10913111Y6688835D01*
X10692291Y6655045D01*
X10479956Y6585643D01*
X10281807Y6482493D01*
X10277674Y6479390D01*
X10277671Y6479388D01*
X10110678Y6354006D01*
X10103165Y6348365D01*
X9948829Y6186862D01*
X9841401Y6029379D01*
X9786493Y5984379D01*
X9715968Y5976208D01*
X9652221Y6007462D01*
X9631524Y6031946D01*
X9551022Y6156383D01*
X9551020Y6156386D01*
X9548214Y6160723D01*
X9397870Y6325949D01*
X9393819Y6329148D01*
X9393815Y6329152D01*
X9226614Y6461200D01*
X9226610Y6461202D01*
X9222559Y6464402D01*
X9026989Y6572362D01*
X9022120Y6574086D01*
X9022116Y6574088D01*
X8821287Y6645205D01*
X8821283Y6645206D01*
X8816412Y6646931D01*
X8811319Y6647838D01*
X8811316Y6647839D01*
X8601573Y6685200D01*
X8601567Y6685201D01*
X8596484Y6686106D01*
X8522652Y6687008D01*
X8378281Y6688772D01*
X8378279Y6688772D01*
X8373111Y6688835D01*
X8152291Y6655045D01*
X7939956Y6585643D01*
X7741807Y6482493D01*
X7737674Y6479390D01*
X7737671Y6479388D01*
X7570678Y6354006D01*
X7563165Y6348365D01*
X7408829Y6186862D01*
X7301401Y6029379D01*
X7246493Y5984379D01*
X7175968Y5976208D01*
X7112221Y6007462D01*
X7091524Y6031946D01*
X7011022Y6156383D01*
X7011020Y6156386D01*
X7008214Y6160723D01*
X6857870Y6325949D01*
X6853819Y6329148D01*
X6853815Y6329152D01*
X6686614Y6461200D01*
X6686610Y6461202D01*
X6682559Y6464402D01*
X6486989Y6572362D01*
X6482120Y6574086D01*
X6482116Y6574088D01*
X6281287Y6645205D01*
X6281283Y6645206D01*
X6276412Y6646931D01*
X6271319Y6647838D01*
X6271316Y6647839D01*
X6061573Y6685200D01*
X6061567Y6685201D01*
X6056484Y6686106D01*
X5982652Y6687008D01*
X5838281Y6688772D01*
X5838279Y6688772D01*
X5833111Y6688835D01*
X5612291Y6655045D01*
X5399956Y6585643D01*
X5201807Y6482493D01*
X5197674Y6479390D01*
X5197671Y6479388D01*
X5030678Y6354006D01*
X5023165Y6348365D01*
X4868829Y6186862D01*
X4761401Y6029379D01*
X4706493Y5984379D01*
X4635968Y5976208D01*
X4572221Y6007462D01*
X4551524Y6031946D01*
X4471022Y6156383D01*
X4471020Y6156386D01*
X4468214Y6160723D01*
X4317870Y6325949D01*
X4313819Y6329148D01*
X4313815Y6329152D01*
X4146614Y6461200D01*
X4146610Y6461202D01*
X4142559Y6464402D01*
X3946989Y6572362D01*
X3942120Y6574086D01*
X3942116Y6574088D01*
X3741287Y6645205D01*
X3741283Y6645206D01*
X3736412Y6646931D01*
X3731319Y6647838D01*
X3731316Y6647839D01*
X3521573Y6685200D01*
X3521567Y6685201D01*
X3516484Y6686106D01*
X3442652Y6687008D01*
X3298281Y6688772D01*
X3298279Y6688772D01*
X3293111Y6688835D01*
X3072291Y6655045D01*
X2859956Y6585643D01*
X2661807Y6482493D01*
X2657674Y6479390D01*
X2657671Y6479388D01*
X2490678Y6354006D01*
X2483165Y6348365D01*
X2328829Y6186862D01*
X2202943Y6002320D01*
X2108888Y5799695D01*
X2049189Y5584430D01*
X2025451Y5362305D01*
X2025748Y5357152D01*
X2025748Y5357149D01*
X2031211Y5262410D01*
X2038310Y5139285D01*
X2039447Y5134239D01*
X2039448Y5134233D01*
X2059319Y5046061D01*
X2087422Y4921361D01*
X2171466Y4714384D01*
X2222219Y4631562D01*
X2285491Y4528312D01*
X2288187Y4523912D01*
X2434450Y4355062D01*
X2438430Y4351758D01*
X2443181Y4347813D01*
X2482816Y4288910D01*
X2484313Y4217929D01*
X2447197Y4157407D01*
X2406925Y4132888D01*
X2366113Y4117588D01*
X2291495Y4089615D01*
X2174939Y4002261D01*
X2087585Y3885705D01*
X2036455Y3749316D01*
X2029700Y3687134D01*
X2029700Y1890866D01*
X2036455Y1828684D01*
X2087585Y1692295D01*
X2174939Y1575739D01*
X2291495Y1488385D01*
X2427884Y1437255D01*
X2490066Y1430500D01*
X4286334Y1430500D01*
X4348516Y1437255D01*
X4484905Y1488385D01*
X4601461Y1575739D01*
X4688815Y1692295D01*
X4732998Y1810152D01*
X4775640Y1866916D01*
X4842201Y1891616D01*
X4911550Y1876408D01*
X4946217Y1848420D01*
X4971418Y1819327D01*
X4978780Y1812117D01*
X5142634Y1676084D01*
X5151081Y1670169D01*
X5334956Y1562721D01*
X5344242Y1558271D01*
X5543201Y1482297D01*
X5553099Y1479421D01*
X5656450Y1458394D01*
X5670499Y1459590D01*
X5674200Y1469935D01*
X5674200Y2917000D01*
X5694202Y2985121D01*
X5747858Y3031614D01*
X5800200Y3043000D01*
X6056200Y3043000D01*
X6124321Y3022998D01*
X6170814Y2969342D01*
X6182200Y2917000D01*
X6182200Y1470483D01*
X6186264Y1456641D01*
X6199678Y1454607D01*
X6206384Y1455466D01*
X6216462Y1457608D01*
X6420455Y1518809D01*
X6430042Y1522567D01*
X6621295Y1616261D01*
X6630145Y1621536D01*
X6803528Y1745208D01*
X6811400Y1751861D01*
X6962252Y1902188D01*
X6968930Y1910035D01*
X7096222Y2087181D01*
X7097479Y2086278D01*
X7144573Y2129638D01*
X7214511Y2141855D01*
X7279951Y2114322D01*
X7307779Y2082489D01*
X7368187Y1983912D01*
X7514450Y1815062D01*
X7686326Y1672368D01*
X7879200Y1559662D01*
X8087892Y1479970D01*
X8092960Y1478939D01*
X8092963Y1478938D01*
X8188062Y1459590D01*
X8306797Y1435433D01*
X8311972Y1435243D01*
X8311974Y1435243D01*
X8524873Y1427436D01*
X8524877Y1427436D01*
X8530037Y1427247D01*
X8535157Y1427903D01*
X8535159Y1427903D01*
X8746488Y1454975D01*
X8746489Y1454975D01*
X8751616Y1455632D01*
X8756566Y1457117D01*
X8960629Y1518339D01*
X8960634Y1518341D01*
X8965584Y1519826D01*
X9166194Y1618104D01*
X9348060Y1747827D01*
X9506296Y1905511D01*
X9636653Y2086923D01*
X9637976Y2085972D01*
X9684845Y2129143D01*
X9754780Y2141375D01*
X9820226Y2113856D01*
X9848075Y2082006D01*
X9908187Y1983912D01*
X10054450Y1815062D01*
X10226326Y1672368D01*
X10419200Y1559662D01*
X10627892Y1479970D01*
X10632960Y1478939D01*
X10632963Y1478938D01*
X10728062Y1459590D01*
X10846797Y1435433D01*
X10851972Y1435243D01*
X10851974Y1435243D01*
X11064873Y1427436D01*
X11064877Y1427436D01*
X11070037Y1427247D01*
X11075157Y1427903D01*
X11075159Y1427903D01*
X11286488Y1454975D01*
X11286489Y1454975D01*
X11291616Y1455632D01*
X11296566Y1457117D01*
X11500629Y1518339D01*
X11500634Y1518341D01*
X11505584Y1519826D01*
X11706194Y1618104D01*
X11888060Y1747827D01*
X12046296Y1905511D01*
X12176653Y2086923D01*
X12177840Y2086070D01*
X12225160Y2129638D01*
X12295097Y2141855D01*
X12360538Y2114322D01*
X12388366Y2082489D01*
X12445894Y1988612D01*
X12451977Y1980301D01*
X12591413Y1819333D01*
X12598780Y1812117D01*
X12762634Y1676084D01*
X12771081Y1670169D01*
X12954956Y1562721D01*
X12964242Y1558271D01*
X13163201Y1482297D01*
X13173099Y1479421D01*
X13276450Y1458394D01*
X13290499Y1459590D01*
X13294200Y1469935D01*
X13294200Y2917000D01*
X13314202Y2985121D01*
X13367858Y3031614D01*
X13420200Y3043000D01*
X13676200Y3043000D01*
X13744321Y3022998D01*
X13790814Y2969342D01*
X13802200Y2917000D01*
X13802200Y1470483D01*
X13806264Y1456641D01*
X13819678Y1454607D01*
X13826384Y1455466D01*
X13836462Y1457608D01*
X14040455Y1518809D01*
X14050042Y1522567D01*
X14241295Y1616261D01*
X14250145Y1621536D01*
X14423528Y1745208D01*
X14431400Y1751861D01*
X14582252Y1902188D01*
X14588930Y1910035D01*
X14716222Y2087181D01*
X14717479Y2086278D01*
X14764573Y2129638D01*
X14834511Y2141855D01*
X14899951Y2114322D01*
X14927779Y2082489D01*
X14988187Y1983912D01*
X15134450Y1815062D01*
X15306326Y1672368D01*
X15499200Y1559662D01*
X15707892Y1479970D01*
X15712960Y1478939D01*
X15712963Y1478938D01*
X15808062Y1459590D01*
X15926797Y1435433D01*
X15931972Y1435243D01*
X15931974Y1435243D01*
X16144873Y1427436D01*
X16144877Y1427436D01*
X16150037Y1427247D01*
X16155157Y1427903D01*
X16155159Y1427903D01*
X16366488Y1454975D01*
X16366489Y1454975D01*
X16371616Y1455632D01*
X16376566Y1457117D01*
X16580629Y1518339D01*
X16580634Y1518341D01*
X16585584Y1519826D01*
X16786194Y1618104D01*
X16968060Y1747827D01*
X17126296Y1905511D01*
X17256653Y2086923D01*
X17257976Y2085972D01*
X17304845Y2129143D01*
X17374780Y2141375D01*
X17440226Y2113856D01*
X17468075Y2082006D01*
X17528187Y1983912D01*
X17674450Y1815062D01*
X17846326Y1672368D01*
X18039200Y1559662D01*
X18247892Y1479970D01*
X18252960Y1478939D01*
X18252963Y1478938D01*
X18348062Y1459590D01*
X18466797Y1435433D01*
X18471972Y1435243D01*
X18471974Y1435243D01*
X18684873Y1427436D01*
X18684877Y1427436D01*
X18690037Y1427247D01*
X18695157Y1427903D01*
X18695159Y1427903D01*
X18906488Y1454975D01*
X18906489Y1454975D01*
X18911616Y1455632D01*
X18916566Y1457117D01*
X19120629Y1518339D01*
X19120634Y1518341D01*
X19125584Y1519826D01*
X19326194Y1618104D01*
X19508060Y1747827D01*
X19666296Y1905511D01*
X19796653Y2086923D01*
X19797840Y2086070D01*
X19845160Y2129638D01*
X19915097Y2141855D01*
X19980538Y2114322D01*
X20008366Y2082489D01*
X20065894Y1988612D01*
X20071977Y1980301D01*
X20211413Y1819333D01*
X20218780Y1812117D01*
X20382634Y1676084D01*
X20391081Y1670169D01*
X20574956Y1562721D01*
X20584242Y1558271D01*
X20783201Y1482297D01*
X20793099Y1479421D01*
X20896450Y1458394D01*
X20910499Y1459590D01*
X20914200Y1469935D01*
X20914200Y2917000D01*
X20934202Y2985121D01*
X20987858Y3031614D01*
X21040200Y3043000D01*
X21296200Y3043000D01*
X21364321Y3022998D01*
X21410814Y2969342D01*
X21422200Y2917000D01*
X21422200Y1470483D01*
X21426264Y1456641D01*
X21439678Y1454607D01*
X21446384Y1455466D01*
X21456462Y1457608D01*
X21660455Y1518809D01*
X21670042Y1522567D01*
X21861295Y1616261D01*
X21870145Y1621536D01*
X22043528Y1745208D01*
X22051400Y1751861D01*
X22202252Y1902188D01*
X22208930Y1910035D01*
X22336222Y2087181D01*
X22337479Y2086278D01*
X22384573Y2129638D01*
X22454511Y2141855D01*
X22519951Y2114322D01*
X22547779Y2082489D01*
X22608187Y1983912D01*
X22754450Y1815062D01*
X22926326Y1672368D01*
X23119200Y1559662D01*
X23327892Y1479970D01*
X23332960Y1478939D01*
X23332963Y1478938D01*
X23428062Y1459590D01*
X23546797Y1435433D01*
X23551972Y1435243D01*
X23551974Y1435243D01*
X23764873Y1427436D01*
X23764877Y1427436D01*
X23770037Y1427247D01*
X23775157Y1427903D01*
X23775159Y1427903D01*
X23986488Y1454975D01*
X23986489Y1454975D01*
X23991616Y1455632D01*
X23996566Y1457117D01*
X24200629Y1518339D01*
X24200634Y1518341D01*
X24205584Y1519826D01*
X24406194Y1618104D01*
X24588060Y1747827D01*
X24746296Y1905511D01*
X24876653Y2086923D01*
X24877976Y2085972D01*
X24924845Y2129143D01*
X24994780Y2141375D01*
X25060226Y2113856D01*
X25088075Y2082006D01*
X25148187Y1983912D01*
X25294450Y1815062D01*
X25466326Y1672368D01*
X25659200Y1559662D01*
X25867892Y1479970D01*
X25872960Y1478939D01*
X25872963Y1478938D01*
X25968062Y1459590D01*
X26086797Y1435433D01*
X26091972Y1435243D01*
X26091974Y1435243D01*
X26304873Y1427436D01*
X26304877Y1427436D01*
X26310037Y1427247D01*
X26315157Y1427903D01*
X26315159Y1427903D01*
X26526488Y1454975D01*
X26526489Y1454975D01*
X26531616Y1455632D01*
X26536566Y1457117D01*
X26740629Y1518339D01*
X26740634Y1518341D01*
X26745584Y1519826D01*
X26946194Y1618104D01*
X27128060Y1747827D01*
X27286296Y1905511D01*
X27416653Y2086923D01*
X27417840Y2086070D01*
X27465160Y2129638D01*
X27535097Y2141855D01*
X27600538Y2114322D01*
X27628366Y2082489D01*
X27685894Y1988612D01*
X27691977Y1980301D01*
X27831413Y1819333D01*
X27838780Y1812117D01*
X28002634Y1676084D01*
X28011081Y1670169D01*
X28194956Y1562721D01*
X28204242Y1558271D01*
X28403201Y1482297D01*
X28413099Y1479421D01*
X28516450Y1458394D01*
X28530499Y1459590D01*
X28534200Y1469935D01*
X28534200Y2917000D01*
X28554202Y2985121D01*
X28607858Y3031614D01*
X28660200Y3043000D01*
X28916200Y3043000D01*
X28984321Y3022998D01*
X29030814Y2969342D01*
X29042200Y2917000D01*
X29042200Y1470483D01*
X29046264Y1456641D01*
X29059678Y1454607D01*
X29066384Y1455466D01*
X29076462Y1457608D01*
X29280455Y1518809D01*
X29290042Y1522567D01*
X29481295Y1616261D01*
X29490145Y1621536D01*
X29663528Y1745208D01*
X29671400Y1751861D01*
X29822252Y1902188D01*
X29828930Y1910035D01*
X29956222Y2087181D01*
X29957479Y2086278D01*
X30004573Y2129638D01*
X30074511Y2141855D01*
X30139951Y2114322D01*
X30167779Y2082489D01*
X30228187Y1983912D01*
X30374450Y1815062D01*
X30546326Y1672368D01*
X30739200Y1559662D01*
X30947892Y1479970D01*
X30952960Y1478939D01*
X30952963Y1478938D01*
X31048062Y1459590D01*
X31166797Y1435433D01*
X31171972Y1435243D01*
X31171974Y1435243D01*
X31384873Y1427436D01*
X31384877Y1427436D01*
X31390037Y1427247D01*
X31395157Y1427903D01*
X31395159Y1427903D01*
X31606488Y1454975D01*
X31606489Y1454975D01*
X31611616Y1455632D01*
X31616566Y1457117D01*
X31820629Y1518339D01*
X31820634Y1518341D01*
X31825584Y1519826D01*
X32026194Y1618104D01*
X32208060Y1747827D01*
X32366296Y1905511D01*
X32496653Y2086923D01*
X32497976Y2085972D01*
X32544845Y2129143D01*
X32614780Y2141375D01*
X32680226Y2113856D01*
X32708075Y2082006D01*
X32768187Y1983912D01*
X32914450Y1815062D01*
X33086326Y1672368D01*
X33279200Y1559662D01*
X33487892Y1479970D01*
X33492960Y1478939D01*
X33492963Y1478938D01*
X33588062Y1459590D01*
X33706797Y1435433D01*
X33711972Y1435243D01*
X33711974Y1435243D01*
X33924873Y1427436D01*
X33924877Y1427436D01*
X33930037Y1427247D01*
X33935157Y1427903D01*
X33935159Y1427903D01*
X34146488Y1454975D01*
X34146489Y1454975D01*
X34151616Y1455632D01*
X34156566Y1457117D01*
X34360629Y1518339D01*
X34360634Y1518341D01*
X34365584Y1519826D01*
X34566194Y1618104D01*
X34748060Y1747827D01*
X34906296Y1905511D01*
X35036653Y2086923D01*
X35037840Y2086070D01*
X35085160Y2129638D01*
X35155097Y2141855D01*
X35220538Y2114322D01*
X35248366Y2082489D01*
X35305894Y1988612D01*
X35311977Y1980301D01*
X35451413Y1819333D01*
X35458780Y1812117D01*
X35622634Y1676084D01*
X35631081Y1670169D01*
X35814956Y1562721D01*
X35824242Y1558271D01*
X36023201Y1482297D01*
X36033099Y1479421D01*
X36136450Y1458394D01*
X36150499Y1459590D01*
X36154200Y1469935D01*
X36154200Y1470483D01*
X36662200Y1470483D01*
X36666264Y1456641D01*
X36679678Y1454607D01*
X36686384Y1455466D01*
X36696462Y1457608D01*
X36900455Y1518809D01*
X36910042Y1522567D01*
X37101295Y1616261D01*
X37110145Y1621536D01*
X37283528Y1745208D01*
X37291400Y1751861D01*
X37442252Y1902188D01*
X37448930Y1910035D01*
X37573203Y2082980D01*
X37578513Y2091817D01*
X37672870Y2282733D01*
X37676669Y2292328D01*
X37738577Y2496090D01*
X37740755Y2506163D01*
X37742186Y2517038D01*
X37739975Y2531222D01*
X37726817Y2535000D01*
X36680315Y2535000D01*
X36665076Y2530525D01*
X36663871Y2529135D01*
X36662200Y2521452D01*
X36662200Y1470483D01*
X36154200Y1470483D01*
X36154200Y2917000D01*
X36174202Y2985121D01*
X36227858Y3031614D01*
X36280200Y3043000D01*
X37726544Y3043000D01*
X37740075Y3046973D01*
X37741380Y3056053D01*
X37699414Y3223125D01*
X37696094Y3232876D01*
X37611172Y3428186D01*
X37606305Y3437261D01*
X37490626Y3616074D01*
X37484336Y3624243D01*
X37341006Y3781760D01*
X37333473Y3788785D01*
X37166339Y3920778D01*
X37157756Y3926480D01*
X37120802Y3946880D01*
X37070831Y3997313D01*
X37056059Y4066755D01*
X37081175Y4133161D01*
X37108527Y4159768D01*
X37132240Y4176682D01*
X37288060Y4287827D01*
X37309669Y4309360D01*
X37442635Y4441863D01*
X37446296Y4445511D01*
X37505794Y4528311D01*
X37573635Y4622723D01*
X37576653Y4626923D01*
X37597520Y4669143D01*
X37673336Y4822547D01*
X37673337Y4822549D01*
X37675630Y4827189D01*
X37740570Y5040931D01*
X37769729Y5262410D01*
X37771356Y5329000D01*
X37753052Y5551639D01*
X37698631Y5768298D01*
X37609554Y5973160D01*
X37488214Y6160723D01*
X37337870Y6325949D01*
X37333819Y6329148D01*
X37333815Y6329152D01*
X37166614Y6461200D01*
X37166610Y6461202D01*
X37162559Y6464402D01*
X36966989Y6572362D01*
X36962120Y6574086D01*
X36962116Y6574088D01*
X36761287Y6645205D01*
X36761283Y6645206D01*
X36756412Y6646931D01*
X36751319Y6647838D01*
X36751316Y6647839D01*
X36541573Y6685200D01*
X36541567Y6685201D01*
X36536484Y6686106D01*
X36462652Y6687008D01*
X36318281Y6688772D01*
X36318279Y6688772D01*
X36313111Y6688835D01*
X36092291Y6655045D01*
X35879956Y6585643D01*
X35681807Y6482493D01*
X35677674Y6479390D01*
X35677671Y6479388D01*
X35510678Y6354006D01*
X35503165Y6348365D01*
X35348829Y6186862D01*
X35241401Y6029379D01*
X35186493Y5984379D01*
X35115968Y5976208D01*
X35052221Y6007462D01*
X35031524Y6031946D01*
X34951022Y6156383D01*
X34951020Y6156386D01*
X34948214Y6160723D01*
X34797870Y6325949D01*
X34793819Y6329148D01*
X34793815Y6329152D01*
X34626614Y6461200D01*
X34626610Y6461202D01*
X34622559Y6464402D01*
X34426989Y6572362D01*
X34422120Y6574086D01*
X34422116Y6574088D01*
X34221287Y6645205D01*
X34221283Y6645206D01*
X34216412Y6646931D01*
X34211319Y6647838D01*
X34211316Y6647839D01*
X34001573Y6685200D01*
X34001567Y6685201D01*
X33996484Y6686106D01*
X33922652Y6687008D01*
X33778281Y6688772D01*
X33778279Y6688772D01*
X33773111Y6688835D01*
X33552291Y6655045D01*
X33339956Y6585643D01*
X33141807Y6482493D01*
X33137674Y6479390D01*
X33137671Y6479388D01*
X32970678Y6354006D01*
X32963165Y6348365D01*
X32808829Y6186862D01*
X32701401Y6029379D01*
X32646493Y5984379D01*
X32575968Y5976208D01*
X32512221Y6007462D01*
X32491524Y6031946D01*
X32411022Y6156383D01*
X32411020Y6156386D01*
X32408214Y6160723D01*
X32257870Y6325949D01*
X32253819Y6329148D01*
X32253815Y6329152D01*
X32086614Y6461200D01*
X32086610Y6461202D01*
X32082559Y6464402D01*
X31886989Y6572362D01*
X31882120Y6574086D01*
X31882116Y6574088D01*
X31681287Y6645205D01*
X31681283Y6645206D01*
X31676412Y6646931D01*
X31671319Y6647838D01*
X31671316Y6647839D01*
X31461573Y6685200D01*
X31461567Y6685201D01*
X31456484Y6686106D01*
X31382652Y6687008D01*
X31238281Y6688772D01*
X31238279Y6688772D01*
X31233111Y6688835D01*
X31012291Y6655045D01*
X30799956Y6585643D01*
X30601807Y6482493D01*
X30597674Y6479390D01*
X30597671Y6479388D01*
X30430678Y6354006D01*
X30423165Y6348365D01*
X30268829Y6186862D01*
X30161401Y6029379D01*
X30106493Y5984379D01*
X30035968Y5976208D01*
X29972221Y6007462D01*
X29951524Y6031946D01*
X29871022Y6156383D01*
X29871020Y6156386D01*
X29868214Y6160723D01*
X29717870Y6325949D01*
X29713819Y6329148D01*
X29713815Y6329152D01*
X29546614Y6461200D01*
X29546610Y6461202D01*
X29542559Y6464402D01*
X29346989Y6572362D01*
X29342120Y6574086D01*
X29342116Y6574088D01*
X29141287Y6645205D01*
X29141283Y6645206D01*
X29136412Y6646931D01*
X29131319Y6647838D01*
X29131316Y6647839D01*
X28921573Y6685200D01*
X28921567Y6685201D01*
X28916484Y6686106D01*
X28842652Y6687008D01*
X28698281Y6688772D01*
X28698279Y6688772D01*
X28693111Y6688835D01*
X28472291Y6655045D01*
X28259956Y6585643D01*
X28061807Y6482493D01*
X28057674Y6479390D01*
X28057671Y6479388D01*
X27890678Y6354006D01*
X27883165Y6348365D01*
X27728829Y6186862D01*
X27621401Y6029379D01*
X27566493Y5984379D01*
X27495968Y5976208D01*
X27432221Y6007462D01*
X27411524Y6031946D01*
X27331022Y6156383D01*
X27331020Y6156386D01*
X27328214Y6160723D01*
X27177870Y6325949D01*
X27173819Y6329148D01*
X27173815Y6329152D01*
X27006614Y6461200D01*
X27006610Y6461202D01*
X27002559Y6464402D01*
X26806989Y6572362D01*
X26802120Y6574086D01*
X26802116Y6574088D01*
X26601287Y6645205D01*
X26601283Y6645206D01*
X26596412Y6646931D01*
X26591319Y6647838D01*
X26591316Y6647839D01*
X26381573Y6685200D01*
X26381567Y6685201D01*
X26376484Y6686106D01*
X26302652Y6687008D01*
X26158281Y6688772D01*
X26158279Y6688772D01*
X26153111Y6688835D01*
X25932291Y6655045D01*
X25719956Y6585643D01*
X25521807Y6482493D01*
X25517674Y6479390D01*
X25517671Y6479388D01*
X25350678Y6354006D01*
X25343165Y6348365D01*
X25188829Y6186862D01*
X25081401Y6029379D01*
X25026493Y5984379D01*
X24955968Y5976208D01*
X24892221Y6007462D01*
X24871524Y6031946D01*
X24791022Y6156383D01*
X24791020Y6156386D01*
X24788214Y6160723D01*
X24637870Y6325949D01*
X24633819Y6329148D01*
X24633815Y6329152D01*
X24466614Y6461200D01*
X24466610Y6461202D01*
X24462559Y6464402D01*
X24266989Y6572362D01*
X24262120Y6574086D01*
X24262116Y6574088D01*
X24061287Y6645205D01*
X24061283Y6645206D01*
X24056412Y6646931D01*
X24051319Y6647838D01*
X24051316Y6647839D01*
X23841573Y6685200D01*
X23841567Y6685201D01*
X23836484Y6686106D01*
X23762652Y6687008D01*
X23618281Y6688772D01*
X23618279Y6688772D01*
X23613111Y6688835D01*
X23392291Y6655045D01*
X23179956Y6585643D01*
X22981807Y6482493D01*
X22977674Y6479390D01*
X22977671Y6479388D01*
X22810678Y6354006D01*
X22803165Y6348365D01*
X22648829Y6186862D01*
X22541401Y6029379D01*
X22486493Y5984379D01*
X22415968Y5976208D01*
X22352221Y6007462D01*
X22331524Y6031946D01*
X22251022Y6156383D01*
X22251020Y6156386D01*
X22248214Y6160723D01*
X22097870Y6325949D01*
X22093819Y6329148D01*
X22093815Y6329152D01*
X21926614Y6461200D01*
X21926610Y6461202D01*
X21922559Y6464402D01*
X21726989Y6572362D01*
X21722120Y6574086D01*
X21722116Y6574088D01*
X21521287Y6645205D01*
X21521283Y6645206D01*
X21516412Y6646931D01*
X21511319Y6647838D01*
X21511316Y6647839D01*
X21301573Y6685200D01*
X21301567Y6685201D01*
X21296484Y6686106D01*
X21222652Y6687008D01*
X21078281Y6688772D01*
X21078279Y6688772D01*
X21073111Y6688835D01*
X20852291Y6655045D01*
X20639956Y6585643D01*
X20441807Y6482493D01*
X20437674Y6479390D01*
X20437671Y6479388D01*
X20270678Y6354006D01*
X20263165Y6348365D01*
X20108829Y6186862D01*
X20001401Y6029379D01*
X19946493Y5984379D01*
X19875968Y5976208D01*
X19812221Y6007462D01*
X19791524Y6031946D01*
X19711022Y6156383D01*
X19711020Y6156386D01*
X19708214Y6160723D01*
X19557870Y6325949D01*
X19553819Y6329148D01*
X19553815Y6329152D01*
X19386614Y6461200D01*
X19386610Y6461202D01*
X19382559Y6464402D01*
X19281749Y6520052D01*
X19231780Y6570484D01*
X19217008Y6639927D01*
X19242124Y6706332D01*
X19253549Y6719455D01*
X24145898Y11611803D01*
X28604924Y16070829D01*
X37129694Y16070829D01*
X37143745Y15856460D01*
X37196626Y15648241D01*
X37199045Y15642994D01*
X37275666Y15476791D01*
X37286566Y15453146D01*
X37410553Y15277708D01*
X37564436Y15127802D01*
X37569232Y15124597D01*
X37569235Y15124595D01*
X37738255Y15011660D01*
X37738260Y15011657D01*
X37743060Y15008450D01*
X37748369Y15006169D01*
X37748371Y15006168D01*
X37935132Y14925928D01*
X37935136Y14925927D01*
X37940442Y14923647D01*
X37946074Y14922373D01*
X37946076Y14922372D01*
X38144337Y14877510D01*
X38144342Y14877509D01*
X38149974Y14876235D01*
X38155745Y14876008D01*
X38155747Y14876008D01*
X38221814Y14873412D01*
X38364638Y14867801D01*
X38489368Y14885886D01*
X38571521Y14897797D01*
X38571525Y14897798D01*
X38577243Y14898627D01*
X38582715Y14900485D01*
X38582717Y14900485D01*
X38775207Y14965827D01*
X38775209Y14965828D01*
X38780671Y14967682D01*
X38968109Y15072652D01*
X39030564Y15124595D01*
X39050693Y15141337D01*
X39133278Y15210022D01*
X39248157Y15348148D01*
X39266957Y15370753D01*
X39270648Y15375191D01*
X39375618Y15562629D01*
X39402899Y15642994D01*
X39442815Y15760583D01*
X39442815Y15760585D01*
X39444673Y15766057D01*
X39456969Y15850858D01*
X39470070Y15941218D01*
X39475499Y15978662D01*
X39477108Y16040100D01*
X39457451Y16254028D01*
X39450569Y16278432D01*
X39427224Y16361206D01*
X39399138Y16460791D01*
X39392799Y16473647D01*
X39306675Y16648286D01*
X39304121Y16653465D01*
X39224444Y16760166D01*
X39179037Y16820974D01*
X39179036Y16820975D01*
X39175584Y16825598D01*
X39156078Y16843629D01*
X39022070Y16967505D01*
X39022067Y16967507D01*
X39017830Y16971424D01*
X38836143Y17086060D01*
X38636608Y17165666D01*
X38630948Y17166792D01*
X38630944Y17166793D01*
X38535589Y17185760D01*
X38472679Y17218668D01*
X38437547Y17280363D01*
X38441347Y17351257D01*
X38482873Y17408843D01*
X38542090Y17434035D01*
X38571412Y17438286D01*
X38582595Y17440971D01*
X38774995Y17506282D01*
X38785510Y17510964D01*
X38915609Y17583823D01*
X38925473Y17593900D01*
X38922518Y17601572D01*
X38316012Y18208078D01*
X38302068Y18215692D01*
X38300235Y18215561D01*
X38293620Y18211310D01*
X37688913Y17606603D01*
X37682717Y17595257D01*
X37692599Y17582768D01*
X37738495Y17552101D01*
X37748605Y17546611D01*
X37935291Y17466405D01*
X37946234Y17462850D01*
X38076879Y17433288D01*
X38138905Y17398745D01*
X38172410Y17336152D01*
X38166756Y17265381D01*
X38123737Y17208901D01*
X38070409Y17186215D01*
X38005067Y17174987D01*
X37999370Y17174008D01*
X37797820Y17099652D01*
X37613194Y16989812D01*
X37608854Y16986006D01*
X37608850Y16986003D01*
X37463398Y16858444D01*
X37451677Y16848165D01*
X37318678Y16679456D01*
X37315989Y16674345D01*
X37315987Y16674342D01*
X37273518Y16593621D01*
X37218650Y16489335D01*
X37154945Y16284169D01*
X37129694Y16070829D01*
X28604924Y16070829D01*
X29093690Y16559595D01*
X29156002Y16593621D01*
X29182785Y16596500D01*
X30711800Y16596500D01*
X30779921Y16576498D01*
X30799147Y16560157D01*
X30799420Y16560460D01*
X30804332Y16556037D01*
X30808747Y16551134D01*
X30830329Y16535454D01*
X30948952Y16449269D01*
X30963248Y16438882D01*
X30969276Y16436198D01*
X30969278Y16436197D01*
X31082542Y16385769D01*
X31137712Y16361206D01*
X31231112Y16341353D01*
X31318056Y16322872D01*
X31318061Y16322872D01*
X31324513Y16321500D01*
X31515487Y16321500D01*
X31521939Y16322872D01*
X31521944Y16322872D01*
X31608888Y16341353D01*
X31702288Y16361206D01*
X31757458Y16385769D01*
X31870722Y16436197D01*
X31870724Y16436198D01*
X31876752Y16438882D01*
X31891049Y16449269D01*
X31956056Y16496500D01*
X32031253Y16551134D01*
X32054091Y16576498D01*
X32154621Y16688148D01*
X32154622Y16688149D01*
X32159040Y16693056D01*
X32246509Y16844556D01*
X32251223Y16852721D01*
X32251224Y16852722D01*
X32254527Y16858444D01*
X32313542Y17040072D01*
X32318376Y17086060D01*
X32332814Y17223435D01*
X32333504Y17230000D01*
X32329785Y17265381D01*
X32314232Y17413365D01*
X32314232Y17413367D01*
X32313542Y17419928D01*
X32254527Y17601556D01*
X32239289Y17627950D01*
X32197960Y17699533D01*
X32159040Y17766944D01*
X32142882Y17784890D01*
X32035675Y17903955D01*
X32035674Y17903956D01*
X32031253Y17908866D01*
X31876752Y18021118D01*
X31870724Y18023802D01*
X31870722Y18023803D01*
X31708319Y18096109D01*
X31708318Y18096109D01*
X31702288Y18098794D01*
X31608887Y18118647D01*
X31521944Y18137128D01*
X31521939Y18137128D01*
X31515487Y18138500D01*
X31324513Y18138500D01*
X31318061Y18137128D01*
X31318056Y18137128D01*
X31231113Y18118647D01*
X31137712Y18098794D01*
X31131682Y18096109D01*
X31131681Y18096109D01*
X30969278Y18023803D01*
X30969276Y18023802D01*
X30963248Y18021118D01*
X30957907Y18017238D01*
X30957906Y18017237D01*
X30892987Y17970070D01*
X30808747Y17908866D01*
X30804332Y17903963D01*
X30799420Y17899540D01*
X30798295Y17900789D01*
X30744986Y17867949D01*
X30711800Y17863500D01*
X28946957Y17863500D01*
X28935774Y17864027D01*
X28928281Y17865702D01*
X28920355Y17865453D01*
X28920354Y17865453D01*
X28860204Y17863562D01*
X28856245Y17863500D01*
X28828334Y17863500D01*
X28824400Y17863003D01*
X28824399Y17863003D01*
X28824334Y17862995D01*
X28812497Y17862062D01*
X28780680Y17861062D01*
X28776219Y17860922D01*
X28768300Y17860673D01*
X28750644Y17855544D01*
X28748848Y17855022D01*
X28729496Y17851014D01*
X28722425Y17850120D01*
X28709393Y17848474D01*
X28702024Y17845557D01*
X28702022Y17845556D01*
X28668287Y17832200D01*
X28657059Y17828355D01*
X28614597Y17816018D01*
X28607774Y17811983D01*
X28607772Y17811982D01*
X28597162Y17805707D01*
X28579414Y17797012D01*
X28560573Y17789552D01*
X28554157Y17784890D01*
X28554156Y17784890D01*
X28524803Y17763564D01*
X28514883Y17757048D01*
X28483655Y17738580D01*
X28483652Y17738578D01*
X28476828Y17734542D01*
X28462507Y17720221D01*
X28447474Y17707381D01*
X28431083Y17695472D01*
X28404686Y17663564D01*
X28402892Y17661395D01*
X28394902Y17652616D01*
X17125252Y6382967D01*
X17062940Y6348941D01*
X16992125Y6354006D01*
X16958064Y6373181D01*
X16846615Y6461199D01*
X16846613Y6461200D01*
X16842559Y6464402D01*
X16646989Y6572362D01*
X16642120Y6574086D01*
X16642116Y6574088D01*
X16441287Y6645205D01*
X16441283Y6645206D01*
X16436412Y6646931D01*
X16431319Y6647838D01*
X16431316Y6647839D01*
X16221573Y6685200D01*
X16221567Y6685201D01*
X16216484Y6686106D01*
X16142652Y6687008D01*
X15998281Y6688772D01*
X15998279Y6688772D01*
X15993111Y6688835D01*
X15772291Y6655045D01*
X15759732Y6650940D01*
X15688768Y6648790D01*
X15631494Y6681611D01*
X6077176Y16235929D01*
X14651694Y16235929D01*
X14665745Y16021560D01*
X14718626Y15813341D01*
X14808566Y15618246D01*
X14932553Y15442808D01*
X15001964Y15375191D01*
X15062664Y15316060D01*
X15086436Y15292902D01*
X15091232Y15289697D01*
X15091235Y15289695D01*
X15260255Y15176760D01*
X15260260Y15176757D01*
X15265060Y15173550D01*
X15270369Y15171269D01*
X15270371Y15171268D01*
X15457132Y15091028D01*
X15457136Y15091027D01*
X15462442Y15088747D01*
X15468074Y15087473D01*
X15468076Y15087472D01*
X15666337Y15042610D01*
X15666342Y15042609D01*
X15671974Y15041335D01*
X15677745Y15041108D01*
X15677747Y15041108D01*
X15743814Y15038512D01*
X15886638Y15032901D01*
X16011368Y15050986D01*
X16093521Y15062897D01*
X16093525Y15062898D01*
X16099243Y15063727D01*
X16104715Y15065585D01*
X16104717Y15065585D01*
X16297207Y15130927D01*
X16297209Y15130928D01*
X16302671Y15132782D01*
X16490109Y15237752D01*
X16552564Y15289695D01*
X16650840Y15371431D01*
X16655278Y15375122D01*
X16792648Y15540291D01*
X16897618Y15727729D01*
X16924899Y15808094D01*
X16964815Y15925683D01*
X16964815Y15925685D01*
X16966673Y15931157D01*
X16969762Y15952458D01*
X16987759Y16076588D01*
X16997499Y16143762D01*
X16999108Y16205200D01*
X16979451Y16419128D01*
X16975863Y16431852D01*
X16957630Y16496500D01*
X16921138Y16625891D01*
X16897245Y16674342D01*
X16828675Y16813386D01*
X16826121Y16818565D01*
X16714903Y16967505D01*
X16701037Y16986074D01*
X16701036Y16986075D01*
X16697584Y16990698D01*
X16650963Y17033794D01*
X16544070Y17132605D01*
X16544067Y17132607D01*
X16539830Y17136524D01*
X16358143Y17251160D01*
X16158608Y17330766D01*
X16152948Y17331892D01*
X16152944Y17331893D01*
X16057589Y17350860D01*
X15994679Y17383768D01*
X15959547Y17445463D01*
X15963347Y17516357D01*
X16004873Y17573943D01*
X16064090Y17599135D01*
X16093412Y17603386D01*
X16104595Y17606071D01*
X16296995Y17671382D01*
X16307510Y17676064D01*
X16437609Y17748923D01*
X16447473Y17759000D01*
X16444518Y17766672D01*
X15838012Y18373178D01*
X15824068Y18380792D01*
X15822235Y18380661D01*
X15815620Y18376410D01*
X15210913Y17771703D01*
X15204717Y17760357D01*
X15214599Y17747868D01*
X15260495Y17717201D01*
X15270605Y17711711D01*
X15457291Y17631505D01*
X15468234Y17627950D01*
X15598879Y17598388D01*
X15660905Y17563845D01*
X15694410Y17501252D01*
X15688756Y17430481D01*
X15645737Y17374001D01*
X15592409Y17351315D01*
X15527067Y17340087D01*
X15521370Y17339108D01*
X15319820Y17264752D01*
X15135194Y17154912D01*
X15130854Y17151106D01*
X15130850Y17151103D01*
X15053170Y17082979D01*
X14973677Y17013265D01*
X14840678Y16844556D01*
X14837989Y16839445D01*
X14837987Y16839442D01*
X14787179Y16742872D01*
X14740650Y16654435D01*
X14676945Y16449269D01*
X14651694Y16235929D01*
X6077176Y16235929D01*
X4790852Y17522253D01*
X4783312Y17530539D01*
X4779200Y17537018D01*
X4753234Y17561402D01*
X4729549Y17583643D01*
X4726707Y17586398D01*
X4706970Y17606135D01*
X4703773Y17608615D01*
X4694751Y17616320D01*
X4678581Y17631505D01*
X4662521Y17646586D01*
X4655575Y17650405D01*
X4655572Y17650407D01*
X4644766Y17656348D01*
X4628247Y17667199D01*
X4622854Y17671382D01*
X4612241Y17679614D01*
X4604972Y17682759D01*
X4604968Y17682762D01*
X4571663Y17697174D01*
X4561013Y17702391D01*
X4522260Y17723695D01*
X4502637Y17728733D01*
X4483934Y17735137D01*
X4472620Y17740033D01*
X4472619Y17740033D01*
X4465345Y17743181D01*
X4457522Y17744420D01*
X4457512Y17744423D01*
X4421676Y17750099D01*
X4410056Y17752505D01*
X4374911Y17761528D01*
X4374910Y17761528D01*
X4367230Y17763500D01*
X4346976Y17763500D01*
X4327265Y17765051D01*
X4315086Y17766980D01*
X4307257Y17768220D01*
X4277986Y17765453D01*
X4263239Y17764059D01*
X4251381Y17763500D01*
X1532814Y17763500D01*
X1464693Y17783502D01*
X1418200Y17837158D01*
X1408096Y17907432D01*
X1435940Y17970070D01*
X1471341Y18012634D01*
X1477860Y18022121D01*
X1577136Y18199390D01*
X1581818Y18209905D01*
X1647129Y18402305D01*
X1649814Y18413488D01*
X1679265Y18616615D01*
X1679895Y18623998D01*
X1681309Y18677996D01*
X1681066Y18685395D01*
X1673278Y18770150D01*
X14652574Y18770150D01*
X14665863Y18567407D01*
X14667664Y18556037D01*
X14717677Y18359109D01*
X14721518Y18348262D01*
X14806582Y18163745D01*
X14812338Y18153776D01*
X14827648Y18132112D01*
X14838239Y18123721D01*
X14851539Y18130749D01*
X15453178Y18732388D01*
X15459556Y18744068D01*
X16189608Y18744068D01*
X16189739Y18742235D01*
X16193990Y18735620D01*
X16799813Y18129797D01*
X16812193Y18123037D01*
X16818773Y18127963D01*
X16894336Y18262890D01*
X16899018Y18273405D01*
X16964329Y18465805D01*
X16967014Y18476988D01*
X16985581Y18605050D01*
X37130574Y18605050D01*
X37143863Y18402307D01*
X37145664Y18390937D01*
X37195677Y18194009D01*
X37199518Y18183162D01*
X37284582Y17998645D01*
X37290338Y17988676D01*
X37305648Y17967012D01*
X37316239Y17958621D01*
X37329539Y17965649D01*
X37931178Y18567288D01*
X37937556Y18578968D01*
X38667608Y18578968D01*
X38667739Y18577135D01*
X38671990Y18570520D01*
X39277813Y17964697D01*
X39290193Y17957937D01*
X39296773Y17962863D01*
X39372336Y18097790D01*
X39377018Y18108305D01*
X39442329Y18300705D01*
X39445014Y18311888D01*
X39474465Y18515015D01*
X39475095Y18522398D01*
X39476509Y18576396D01*
X39476266Y18583795D01*
X39457486Y18788179D01*
X39455388Y18799500D01*
X39400238Y18995047D01*
X39396113Y19005794D01*
X39306248Y19188022D01*
X39301738Y19195381D01*
X39291227Y19203270D01*
X39278808Y19196498D01*
X38675222Y18592912D01*
X38667608Y18578968D01*
X37937556Y18578968D01*
X37938792Y18581232D01*
X37938661Y18583065D01*
X37934410Y18589680D01*
X37327018Y19197072D01*
X37314638Y19203832D01*
X37308672Y19199366D01*
X37221803Y19034253D01*
X37217402Y19023629D01*
X37157149Y18829582D01*
X37154757Y18818328D01*
X37130875Y18616551D01*
X37130574Y18605050D01*
X16985581Y18605050D01*
X16996465Y18680115D01*
X16997095Y18687498D01*
X16998509Y18741496D01*
X16998266Y18748895D01*
X16979486Y18953279D01*
X16977388Y18964600D01*
X16922238Y19160147D01*
X16918113Y19170894D01*
X16828248Y19353122D01*
X16823738Y19360481D01*
X16813227Y19368370D01*
X16800808Y19361598D01*
X16197222Y18758012D01*
X16189608Y18744068D01*
X15459556Y18744068D01*
X15460792Y18746332D01*
X15460661Y18748165D01*
X15456410Y18754780D01*
X14849018Y19362172D01*
X14836638Y19368932D01*
X14830672Y19364466D01*
X14743803Y19199353D01*
X14739402Y19188729D01*
X14679149Y18994682D01*
X14676757Y18983428D01*
X14652875Y18781651D01*
X14652574Y18770150D01*
X1673278Y18770150D01*
X1662286Y18889779D01*
X1660188Y18901100D01*
X1605038Y19096647D01*
X1600913Y19107394D01*
X1511048Y19289622D01*
X1506538Y19296981D01*
X1496027Y19304870D01*
X1483608Y19298098D01*
X597095Y18411585D01*
X534783Y18377559D01*
X463968Y18382624D01*
X418905Y18411585D01*
X-468182Y19298672D01*
X-480562Y19305432D01*
X-486528Y19300966D01*
X-573397Y19135853D01*
X-577798Y19125229D01*
X-638051Y18931182D01*
X-640443Y18919928D01*
X-664325Y18718151D01*
X-664626Y18706650D01*
X-651337Y18503907D01*
X-649536Y18492537D01*
X-599523Y18295609D01*
X-595682Y18284762D01*
X-510617Y18100242D01*
X-504866Y18090281D01*
X-414362Y17962220D01*
X-391381Y17895046D01*
X-408366Y17826111D01*
X-459923Y17777301D01*
X-517259Y17763500D01*
X-3721233Y17763500D01*
X-3732416Y17764027D01*
X-3739909Y17765702D01*
X-3747835Y17765453D01*
X-3747836Y17765453D01*
X-3804227Y17763681D01*
X-3807935Y17763564D01*
X-3807999Y17763562D01*
X-3811957Y17763500D01*
X-3839856Y17763500D01*
X-3843846Y17762996D01*
X-3855680Y17762064D01*
X-3899889Y17760674D01*
X-3907503Y17758462D01*
X-3907508Y17758461D01*
X-3919341Y17755023D01*
X-3938704Y17751012D01*
X-3958797Y17748474D01*
X-3966164Y17745557D01*
X-3966169Y17745556D01*
X-3999908Y17732198D01*
X-4011135Y17728354D01*
X-4053593Y17716018D01*
X-4060419Y17711981D01*
X-4071028Y17705707D01*
X-4088776Y17697012D01*
X-4107617Y17689552D01*
X-4114033Y17684890D01*
X-4114034Y17684890D01*
X-4143387Y17663564D01*
X-4153307Y17657048D01*
X-4184535Y17638580D01*
X-4184538Y17638578D01*
X-4191362Y17634542D01*
X-4205683Y17620221D01*
X-4220716Y17607381D01*
X-4237107Y17595472D01*
X-4242157Y17589368D01*
X-4242162Y17589363D01*
X-4265293Y17561402D01*
X-4273283Y17552621D01*
X-4990501Y16835404D01*
X-5052813Y16801379D01*
X-5079596Y16798500D01*
X-5135487Y16798500D01*
X-5141939Y16797128D01*
X-5141944Y16797128D01*
X-5228887Y16778647D01*
X-5322288Y16758794D01*
X-5328318Y16756109D01*
X-5328319Y16756109D01*
X-5490722Y16683803D01*
X-5490724Y16683802D01*
X-5496752Y16681118D01*
X-5502093Y16677238D01*
X-5502094Y16677237D01*
X-5526436Y16659551D01*
X-5651253Y16568866D01*
X-5655674Y16563956D01*
X-5655675Y16563955D01*
X-5736988Y16473647D01*
X-5779040Y16426944D01*
X-5874527Y16261556D01*
X-5933542Y16079928D01*
X-5934232Y16073367D01*
X-5934232Y16073365D01*
X-5948121Y15941218D01*
X-5953504Y15890000D01*
X-8043240Y15890000D01*
X-8044114Y17692469D01*
X-8045482Y20513166D01*
X-660900Y20513166D01*
X-654145Y20450984D01*
X-603015Y20314595D01*
X-515661Y20198039D01*
X-399105Y20110685D01*
X-262716Y20059555D01*
X-200534Y20052800D01*
X142975Y20052800D01*
X211096Y20032798D01*
X257589Y19979142D01*
X267693Y19908868D01*
X238199Y19844288D01*
X186586Y19808588D01*
X8252Y19742797D01*
X-2126Y19737847D01*
X-103683Y19677426D01*
X-113281Y19667093D01*
X-109794Y19658704D01*
X495188Y19053722D01*
X509132Y19046108D01*
X510965Y19046239D01*
X517580Y19050490D01*
X1122073Y19654983D01*
X1128833Y19667363D01*
X1122803Y19675418D01*
X1045595Y19724133D01*
X1035352Y19729352D01*
X846631Y19804644D01*
X842091Y19805989D01*
X782457Y19844515D01*
X753118Y19909166D01*
X763390Y19979416D01*
X810010Y20032960D01*
X877878Y20052800D01*
X1216534Y20052800D01*
X1278716Y20059555D01*
X1415105Y20110685D01*
X1531661Y20198039D01*
X1619015Y20314595D01*
X1670145Y20450984D01*
X1672842Y20475809D01*
X1700085Y20541371D01*
X1751040Y20576666D01*
X14656300Y20576666D01*
X14663055Y20514484D01*
X14714185Y20378095D01*
X14801539Y20261539D01*
X14918095Y20174185D01*
X15054484Y20123055D01*
X15116666Y20116300D01*
X15460175Y20116300D01*
X15528296Y20096298D01*
X15574789Y20042642D01*
X15584893Y19972368D01*
X15555399Y19907788D01*
X15503786Y19872088D01*
X15325452Y19806297D01*
X15315074Y19801347D01*
X15213517Y19740926D01*
X15203919Y19730593D01*
X15207406Y19722204D01*
X15812388Y19117222D01*
X15826332Y19109608D01*
X15828165Y19109739D01*
X15834780Y19113990D01*
X16439273Y19718483D01*
X16446033Y19730863D01*
X16440003Y19738918D01*
X16362795Y19787633D01*
X16352552Y19792852D01*
X16163831Y19868144D01*
X16159291Y19869489D01*
X16099657Y19908015D01*
X16070318Y19972666D01*
X16080590Y20042916D01*
X16127210Y20096460D01*
X16195078Y20116300D01*
X16533734Y20116300D01*
X16595916Y20123055D01*
X16732305Y20174185D01*
X16848861Y20261539D01*
X16936215Y20378095D01*
X16948763Y20411566D01*
X37134300Y20411566D01*
X37141055Y20349384D01*
X37192185Y20212995D01*
X37279539Y20096439D01*
X37396095Y20009085D01*
X37532484Y19957955D01*
X37594666Y19951200D01*
X37938175Y19951200D01*
X38006296Y19931198D01*
X38052789Y19877542D01*
X38062893Y19807268D01*
X38033399Y19742688D01*
X37981786Y19706988D01*
X37803452Y19641197D01*
X37793074Y19636247D01*
X37691517Y19575826D01*
X37681919Y19565493D01*
X37685406Y19557104D01*
X38290388Y18952122D01*
X38304332Y18944508D01*
X38306165Y18944639D01*
X38312780Y18948890D01*
X38917273Y19553383D01*
X38924033Y19565763D01*
X38918003Y19573818D01*
X38840795Y19622533D01*
X38830552Y19627752D01*
X38641831Y19703044D01*
X38637291Y19704389D01*
X38577657Y19742915D01*
X38548318Y19807566D01*
X38558590Y19877816D01*
X38605210Y19931360D01*
X38673078Y19951200D01*
X39011734Y19951200D01*
X39073916Y19957955D01*
X39210305Y20009085D01*
X39326861Y20096439D01*
X39414215Y20212995D01*
X39465345Y20349384D01*
X39472100Y20411566D01*
X39472100Y21828634D01*
X39465345Y21890816D01*
X39414215Y22027205D01*
X39326861Y22143761D01*
X39210305Y22231115D01*
X39073916Y22282245D01*
X39011734Y22289000D01*
X37594666Y22289000D01*
X37532484Y22282245D01*
X37396095Y22231115D01*
X37279539Y22143761D01*
X37192185Y22027205D01*
X37141055Y21890816D01*
X37134300Y21828634D01*
X37134300Y20411566D01*
X16948763Y20411566D01*
X16987345Y20514484D01*
X16994100Y20576666D01*
X16994100Y21993734D01*
X16987345Y22055916D01*
X16936215Y22192305D01*
X16848861Y22308861D01*
X16732305Y22396215D01*
X16595916Y22447345D01*
X16533734Y22454100D01*
X15116666Y22454100D01*
X15054484Y22447345D01*
X14918095Y22396215D01*
X14801539Y22308861D01*
X14714185Y22192305D01*
X14663055Y22055916D01*
X14656300Y21993734D01*
X14656300Y20576666D01*
X1751040Y20576666D01*
X1758448Y20581797D01*
X1798105Y20588200D01*
X3662933Y20588200D01*
X3674116Y20587673D01*
X3681609Y20585998D01*
X3689535Y20586247D01*
X3689536Y20586247D01*
X3749686Y20588138D01*
X3753645Y20588200D01*
X3781556Y20588200D01*
X3785491Y20588697D01*
X3785556Y20588705D01*
X3797393Y20589638D01*
X3829651Y20590652D01*
X3833670Y20590778D01*
X3841589Y20591027D01*
X3861043Y20596679D01*
X3880400Y20600687D01*
X3892630Y20602232D01*
X3892631Y20602232D01*
X3900497Y20603226D01*
X3907868Y20606145D01*
X3907870Y20606145D01*
X3941612Y20619504D01*
X3952842Y20623349D01*
X3987683Y20633471D01*
X3987684Y20633471D01*
X3995293Y20635682D01*
X4002112Y20639715D01*
X4002117Y20639717D01*
X4012728Y20645993D01*
X4030476Y20654688D01*
X4049317Y20662148D01*
X4085087Y20688136D01*
X4095007Y20694652D01*
X4126235Y20713120D01*
X4126238Y20713122D01*
X4133062Y20717158D01*
X4147383Y20731479D01*
X4162417Y20744320D01*
X4172394Y20751569D01*
X4178807Y20756228D01*
X4183858Y20762333D01*
X4183863Y20762338D01*
X4206999Y20790304D01*
X4214987Y20799082D01*
X4640500Y21224595D01*
X4702812Y21258621D01*
X4729595Y21261500D01*
X4785487Y21261500D01*
X4791939Y21262872D01*
X4791944Y21262872D01*
X4878887Y21281353D01*
X4972288Y21301206D01*
X4978319Y21303891D01*
X5140722Y21376197D01*
X5140724Y21376198D01*
X5146752Y21378882D01*
X5301253Y21491134D01*
X5429040Y21633056D01*
X5524527Y21798444D01*
X5583542Y21980072D01*
X5584840Y21992416D01*
X5602814Y22163435D01*
X5603504Y22170000D01*
X5583542Y22359928D01*
X5524527Y22541556D01*
X5429040Y22706944D01*
X5366685Y22776197D01*
X5305675Y22843955D01*
X5305674Y22843956D01*
X5301253Y22848866D01*
X5146752Y22961118D01*
X5140724Y22963802D01*
X5140722Y22963803D01*
X4978319Y23036109D01*
X4978318Y23036109D01*
X4972288Y23038794D01*
X4878888Y23058647D01*
X4791944Y23077128D01*
X4791939Y23077128D01*
X4785487Y23078500D01*
X4594513Y23078500D01*
X4588061Y23077128D01*
X4588056Y23077128D01*
X4501112Y23058647D01*
X4407712Y23038794D01*
X4401682Y23036109D01*
X4401681Y23036109D01*
X4239278Y22963803D01*
X4239276Y22963802D01*
X4233248Y22961118D01*
X4078747Y22848866D01*
X4074326Y22843956D01*
X4074325Y22843955D01*
X4013316Y22776197D01*
X3950960Y22706944D01*
X3855473Y22541556D01*
X3796458Y22359928D01*
X3795768Y22353367D01*
X3795768Y22353365D01*
X3779093Y22194708D01*
X3752080Y22129051D01*
X3742878Y22118782D01*
X3516199Y21892104D01*
X3453887Y21858079D01*
X3427104Y21855200D01*
X1798105Y21855200D01*
X1729984Y21875202D01*
X1683491Y21928858D01*
X1672842Y21967591D01*
X1670998Y21984560D01*
X1670145Y21992416D01*
X1619015Y22128805D01*
X1531661Y22245361D01*
X1415105Y22332715D01*
X1278716Y22383845D01*
X1216534Y22390600D01*
X-200534Y22390600D01*
X-262716Y22383845D01*
X-399105Y22332715D01*
X-515661Y22245361D01*
X-603015Y22128805D01*
X-654145Y21992416D01*
X-660900Y21930234D01*
X-660900Y20513166D01*
X-8045482Y20513166D01*
X-8049301Y28390000D01*
X2716496Y28390000D01*
X2717186Y28383435D01*
X2730909Y28252872D01*
X2736458Y28200072D01*
X2795473Y28018444D01*
X2890960Y27853056D01*
X2895378Y27848149D01*
X2895379Y27848148D01*
X2949086Y27788500D01*
X3018747Y27711134D01*
X3173248Y27598882D01*
X3179276Y27596198D01*
X3179278Y27596197D01*
X3274156Y27553955D01*
X3347712Y27521206D01*
X3441112Y27501353D01*
X3528056Y27482872D01*
X3528061Y27482872D01*
X3534513Y27481500D01*
X3725487Y27481500D01*
X3731939Y27482872D01*
X3731944Y27482872D01*
X3818888Y27501353D01*
X3912288Y27521206D01*
X3985844Y27553955D01*
X4080722Y27596197D01*
X4080724Y27596198D01*
X4086752Y27598882D01*
X4241253Y27711134D01*
X4310914Y27788500D01*
X4364621Y27848148D01*
X4364622Y27848149D01*
X4369040Y27853056D01*
X4464527Y28018444D01*
X4523542Y28200072D01*
X4529092Y28252872D01*
X4540907Y28365292D01*
X4567920Y28430949D01*
X4577122Y28441218D01*
X5412258Y29276353D01*
X5420537Y29283887D01*
X5427018Y29288000D01*
X5473644Y29337652D01*
X5476398Y29340493D01*
X5496135Y29360230D01*
X5498615Y29363427D01*
X5506320Y29372449D01*
X5531159Y29398900D01*
X5536586Y29404679D01*
X5540405Y29411625D01*
X5540407Y29411628D01*
X5546348Y29422434D01*
X5557199Y29438953D01*
X5564758Y29448699D01*
X5569614Y29454959D01*
X5572759Y29462228D01*
X5572762Y29462232D01*
X5587174Y29495537D01*
X5592391Y29506187D01*
X5613695Y29544940D01*
X5618733Y29564563D01*
X5625137Y29583266D01*
X5630033Y29594580D01*
X5630033Y29594581D01*
X5633181Y29601855D01*
X5634420Y29609678D01*
X5634423Y29609688D01*
X5640099Y29645524D01*
X5642505Y29657144D01*
X5651528Y29692289D01*
X5651528Y29692290D01*
X5653500Y29699970D01*
X5653500Y29720224D01*
X5655051Y29739935D01*
X5656980Y29752114D01*
X5658220Y29759943D01*
X5654059Y29803962D01*
X5653500Y29815819D01*
X5653500Y30087476D01*
X5673502Y30155597D01*
X5685858Y30171779D01*
X5759040Y30253056D01*
X5854527Y30418444D01*
X5913542Y30600072D01*
X5915360Y30617363D01*
X5932814Y30783435D01*
X5933504Y30790000D01*
X5929508Y30828020D01*
X5914232Y30973365D01*
X5914232Y30973367D01*
X5913542Y30979928D01*
X5854527Y31161556D01*
X5836121Y31193437D01*
X5762341Y31321226D01*
X5759040Y31326944D01*
X5754002Y31332540D01*
X5635675Y31463955D01*
X5635674Y31463956D01*
X5631253Y31468866D01*
X5527397Y31544322D01*
X5482094Y31577237D01*
X5482093Y31577238D01*
X5476752Y31581118D01*
X5470724Y31583802D01*
X5470722Y31583803D01*
X5308319Y31656109D01*
X5308318Y31656109D01*
X5302288Y31658794D01*
X5208888Y31678647D01*
X5121944Y31697128D01*
X5121939Y31697128D01*
X5115487Y31698500D01*
X4924513Y31698500D01*
X4918061Y31697128D01*
X4918056Y31697128D01*
X4831112Y31678647D01*
X4737712Y31658794D01*
X4731682Y31656109D01*
X4731681Y31656109D01*
X4569278Y31583803D01*
X4569276Y31583802D01*
X4563248Y31581118D01*
X4557907Y31577238D01*
X4557906Y31577237D01*
X4512603Y31544322D01*
X4408747Y31468866D01*
X4404326Y31463956D01*
X4404325Y31463955D01*
X4285999Y31332540D01*
X4280960Y31326944D01*
X4277659Y31321226D01*
X4203880Y31193437D01*
X4185473Y31161556D01*
X4126458Y30979928D01*
X4125768Y30973367D01*
X4125768Y30973365D01*
X4110492Y30828020D01*
X4106496Y30790000D01*
X4107186Y30783435D01*
X4124641Y30617363D01*
X4126458Y30600072D01*
X4185473Y30418444D01*
X4280960Y30253056D01*
X4350764Y30175531D01*
X4381480Y30111525D01*
X4372716Y30041071D01*
X4346222Y30002126D01*
X3679499Y29335404D01*
X3617187Y29301379D01*
X3590404Y29298500D01*
X3534513Y29298500D01*
X3528061Y29297128D01*
X3528056Y29297128D01*
X3441113Y29278647D01*
X3347712Y29258794D01*
X3341682Y29256109D01*
X3341681Y29256109D01*
X3179278Y29183803D01*
X3179276Y29183802D01*
X3173248Y29181118D01*
X3018747Y29068866D01*
X3014326Y29063956D01*
X3014325Y29063955D01*
X2929793Y28970072D01*
X2890960Y28926944D01*
X2795473Y28761556D01*
X2736458Y28579928D01*
X2716496Y28390000D01*
X-8049301Y28390000D01*
X-8051227Y32361423D01*
X-8037749Y32418183D01*
X-7817484Y32855280D01*
X6559564Y32855280D01*
X6559861Y32850127D01*
X6559861Y32850124D01*
X6567148Y32723739D01*
X6572896Y32624052D01*
X6574033Y32619006D01*
X6574034Y32619000D01*
X6606210Y32476226D01*
X6623815Y32398107D01*
X6625757Y32393325D01*
X6625758Y32393321D01*
X6667148Y32291391D01*
X6710953Y32183512D01*
X6831970Y31986030D01*
X6983616Y31810965D01*
X7161818Y31663019D01*
X7361791Y31546165D01*
X7578163Y31463540D01*
X7583229Y31462509D01*
X7583230Y31462509D01*
X7636315Y31451709D01*
X7805125Y31417364D01*
X7935793Y31412573D01*
X8031418Y31409066D01*
X8031422Y31409066D01*
X8036582Y31408877D01*
X8041702Y31409533D01*
X8041704Y31409533D01*
X8114739Y31418889D01*
X8266316Y31438307D01*
X8271264Y31439792D01*
X8271271Y31439793D01*
X8483216Y31503380D01*
X8488159Y31504863D01*
X8568705Y31544322D01*
X8691518Y31604487D01*
X8691521Y31604489D01*
X8696153Y31606758D01*
X8884712Y31741255D01*
X9048772Y31904744D01*
X9183927Y32092832D01*
X9214513Y32154717D01*
X9284253Y32295827D01*
X9284254Y32295829D01*
X9286547Y32300469D01*
X9353877Y32522078D01*
X9384109Y32751708D01*
X9385796Y32820749D01*
X9379501Y32897315D01*
X9367242Y33046431D01*
X9367241Y33046437D01*
X9366818Y33051582D01*
X9314048Y33261669D01*
X9311653Y33271205D01*
X9311652Y33271209D01*
X9310394Y33276216D01*
X9308336Y33280949D01*
X9308333Y33280958D01*
X9269931Y33369275D01*
X9261110Y33439722D01*
X9291777Y33503754D01*
X9352193Y33541042D01*
X9384269Y33545512D01*
X9414199Y33545800D01*
X9456813Y33546209D01*
X9596216Y33588430D01*
X9603727Y33593335D01*
X9603730Y33593337D01*
X9710652Y33663172D01*
X9718167Y33668080D01*
X9812861Y33778756D01*
X9840476Y33834878D01*
X10489038Y35616787D01*
X10489849Y35620087D01*
X10502074Y35669857D01*
X10502074Y35669861D01*
X10503958Y35677529D01*
X10502559Y35823181D01*
X10460338Y35962584D01*
X10455433Y35970095D01*
X10455431Y35970098D01*
X10390254Y36069889D01*
X10380688Y36084535D01*
X10270012Y36179229D01*
X10213890Y36206844D01*
X8431981Y36855406D01*
X8428688Y36856215D01*
X8428681Y36856217D01*
X8378911Y36868442D01*
X8378907Y36868442D01*
X8371239Y36870326D01*
X8225587Y36868927D01*
X8086184Y36826706D01*
X8078673Y36821801D01*
X8078670Y36821799D01*
X8028479Y36789017D01*
X7964233Y36747056D01*
X7869539Y36636380D01*
X7841924Y36580258D01*
X7193362Y34798349D01*
X7178442Y34737607D01*
X7179841Y34591955D01*
X7222062Y34452552D01*
X7226967Y34445041D01*
X7226969Y34445038D01*
X7250383Y34409190D01*
X7301712Y34330601D01*
X7308534Y34324764D01*
X7308535Y34324763D01*
X7356849Y34283426D01*
X7395606Y34223942D01*
X7396051Y34152947D01*
X7358042Y34092981D01*
X7333115Y34075924D01*
X7219341Y34016697D01*
X7215208Y34013594D01*
X7215205Y34013592D01*
X7038259Y33880737D01*
X7034124Y33877632D01*
X7030552Y33873894D01*
X6933896Y33772749D01*
X6874108Y33710185D01*
X6743588Y33518850D01*
X6646071Y33308768D01*
X6584176Y33085580D01*
X6559564Y32855280D01*
X-7817484Y32855280D01*
X-7612666Y33261722D01*
X-7610638Y33265577D01*
X-7604800Y33276216D01*
X-7369033Y33705912D01*
X-7088902Y34216462D01*
X-7086710Y34220296D01*
X-6531983Y35152303D01*
X-6529658Y35156057D01*
X-6389464Y35373853D01*
X-5942627Y36068032D01*
X-5940173Y36071702D01*
X-5321546Y36962546D01*
X-5318965Y36966128D01*
X-5074787Y37292703D01*
X-4669470Y37834792D01*
X-4666796Y37838240D01*
X-3987234Y38683645D01*
X-3984446Y38686990D01*
X-3709691Y39005280D01*
X8779564Y39005280D01*
X8779861Y39000127D01*
X8779861Y39000124D01*
X8789880Y38826358D01*
X8792896Y38774052D01*
X8794033Y38769006D01*
X8794034Y38769000D01*
X8817051Y38666869D01*
X8843815Y38548107D01*
X8845757Y38543325D01*
X8845758Y38543321D01*
X8911878Y38380487D01*
X8930953Y38333512D01*
X9051970Y38136030D01*
X9203616Y37960965D01*
X9381818Y37813019D01*
X9581791Y37696165D01*
X9798163Y37613540D01*
X9803229Y37612509D01*
X9803230Y37612509D01*
X9856315Y37601709D01*
X10025125Y37567364D01*
X10155793Y37562573D01*
X10251418Y37559066D01*
X10251422Y37559066D01*
X10256582Y37558877D01*
X10261702Y37559533D01*
X10261704Y37559533D01*
X10357960Y37571864D01*
X10486316Y37588307D01*
X10491264Y37589792D01*
X10491271Y37589793D01*
X10703216Y37653380D01*
X10708159Y37654863D01*
X10788705Y37694322D01*
X10911518Y37754487D01*
X10911521Y37754489D01*
X10916153Y37756758D01*
X11104712Y37891255D01*
X11268772Y38054744D01*
X11403927Y38242832D01*
X11451110Y38338299D01*
X11504253Y38445827D01*
X11504254Y38445829D01*
X11506547Y38450469D01*
X11573877Y38672078D01*
X11604109Y38901708D01*
X11604191Y38905058D01*
X11605714Y38967384D01*
X11605714Y38967388D01*
X11605796Y38970749D01*
X11591596Y39143469D01*
X11587242Y39196431D01*
X11587241Y39196437D01*
X11586818Y39201582D01*
X11548566Y39353871D01*
X11531653Y39421205D01*
X11531652Y39421209D01*
X11530394Y39426216D01*
X11528336Y39430949D01*
X11528333Y39430958D01*
X11489931Y39519275D01*
X11481110Y39589722D01*
X11511777Y39653754D01*
X11572193Y39691042D01*
X11604269Y39695512D01*
X11634199Y39695800D01*
X11676813Y39696209D01*
X11816216Y39738430D01*
X11823727Y39743335D01*
X11823730Y39743337D01*
X11897604Y39791587D01*
X11938167Y39818080D01*
X12032861Y39928756D01*
X12060476Y39984878D01*
X12113125Y40129531D01*
X13982095Y40129531D01*
X13982392Y40124378D01*
X13982392Y40124375D01*
X13994579Y39913013D01*
X13995427Y39898303D01*
X13996564Y39893257D01*
X13996565Y39893251D01*
X14013452Y39818319D01*
X14046346Y39672358D01*
X14048288Y39667576D01*
X14048289Y39667572D01*
X14131540Y39462550D01*
X14133484Y39457763D01*
X14254501Y39260281D01*
X14406147Y39085216D01*
X14584349Y38937270D01*
X14697073Y38871400D01*
X14699070Y38870233D01*
X14747794Y38818595D01*
X14761500Y38761445D01*
X14761500Y37113767D01*
X14760973Y37102584D01*
X14759298Y37095091D01*
X14759547Y37087165D01*
X14759547Y37087164D01*
X14761438Y37027014D01*
X14761500Y37023055D01*
X14761500Y36995144D01*
X14761997Y36991210D01*
X14761997Y36991209D01*
X14762005Y36991144D01*
X14762938Y36979307D01*
X14764327Y36935111D01*
X14769978Y36915661D01*
X14773987Y36896300D01*
X14776526Y36876203D01*
X14779445Y36868832D01*
X14779445Y36868830D01*
X14792804Y36835088D01*
X14796649Y36823858D01*
X14808982Y36781407D01*
X14813015Y36774588D01*
X14813017Y36774583D01*
X14819293Y36763972D01*
X14827988Y36746224D01*
X14835448Y36727383D01*
X14840110Y36720967D01*
X14840110Y36720966D01*
X14861436Y36691613D01*
X14867952Y36681693D01*
X14890458Y36643638D01*
X14904779Y36629317D01*
X14917619Y36614284D01*
X14929528Y36597893D01*
X14935634Y36592842D01*
X14963605Y36569702D01*
X14972384Y36561712D01*
X22322878Y29211217D01*
X22356904Y29148905D01*
X22359093Y29135294D01*
X22376458Y28970072D01*
X22435473Y28788444D01*
X22530960Y28623056D01*
X22535378Y28618149D01*
X22535379Y28618148D01*
X22575702Y28573365D01*
X22658747Y28481134D01*
X22757843Y28409136D01*
X22793218Y28383435D01*
X22813248Y28368882D01*
X22819276Y28366198D01*
X22819278Y28366197D01*
X22981679Y28293892D01*
X22987712Y28291206D01*
X23081113Y28271353D01*
X23168056Y28252872D01*
X23168061Y28252872D01*
X23174513Y28251500D01*
X23365487Y28251500D01*
X23371939Y28252872D01*
X23371944Y28252872D01*
X23458887Y28271353D01*
X23552288Y28291206D01*
X23558315Y28293889D01*
X23558323Y28293892D01*
X23634252Y28327698D01*
X23704619Y28337132D01*
X23768916Y28307025D01*
X23806729Y28246936D01*
X23811500Y28212591D01*
X23811500Y25239595D01*
X23791498Y25171474D01*
X23774595Y25150500D01*
X23139500Y24515405D01*
X23077188Y24481379D01*
X23050405Y24478500D01*
X22994513Y24478500D01*
X22988061Y24477128D01*
X22988056Y24477128D01*
X22901113Y24458647D01*
X22807712Y24438794D01*
X22801682Y24436109D01*
X22801681Y24436109D01*
X22639278Y24363803D01*
X22639276Y24363802D01*
X22633248Y24361118D01*
X22478747Y24248866D01*
X22350960Y24106944D01*
X22255473Y23941556D01*
X22196458Y23759928D01*
X22176496Y23570000D01*
X22196458Y23380072D01*
X22255473Y23198444D01*
X22350960Y23033056D01*
X22355378Y23028149D01*
X22355379Y23028148D01*
X22415733Y22961118D01*
X22478747Y22891134D01*
X22633248Y22778882D01*
X22639276Y22776198D01*
X22639278Y22776197D01*
X22794824Y22706944D01*
X22807712Y22701206D01*
X22901113Y22681353D01*
X22988056Y22662872D01*
X22988061Y22662872D01*
X22994513Y22661500D01*
X23185487Y22661500D01*
X23191939Y22662872D01*
X23191944Y22662872D01*
X23278887Y22681353D01*
X23372288Y22701206D01*
X23385176Y22706944D01*
X23540722Y22776197D01*
X23540724Y22776198D01*
X23546752Y22778882D01*
X23701253Y22891134D01*
X23764267Y22961118D01*
X23824621Y23028148D01*
X23824622Y23028149D01*
X23829040Y23033056D01*
X23924527Y23198444D01*
X23983542Y23380072D01*
X24000907Y23545294D01*
X24027920Y23610950D01*
X24037122Y23621218D01*
X24837247Y24421343D01*
X24845537Y24428887D01*
X24852018Y24433000D01*
X24898659Y24482668D01*
X24901413Y24485509D01*
X24921134Y24505230D01*
X24923612Y24508425D01*
X24931318Y24517447D01*
X24956158Y24543899D01*
X24961586Y24549679D01*
X24971346Y24567432D01*
X24982199Y24583955D01*
X24989753Y24593694D01*
X24994613Y24599959D01*
X25012176Y24640543D01*
X25017383Y24651173D01*
X25038695Y24689940D01*
X25040666Y24697617D01*
X25040668Y24697622D01*
X25043732Y24709558D01*
X25050138Y24728270D01*
X25055034Y24739583D01*
X25058181Y24746855D01*
X25065097Y24790519D01*
X25067504Y24802140D01*
X25076528Y24837289D01*
X25076528Y24837290D01*
X25078500Y24844970D01*
X25078500Y24865231D01*
X25080051Y24884942D01*
X25081979Y24897115D01*
X25083219Y24904943D01*
X25079059Y24948954D01*
X25078500Y24960811D01*
X25078500Y34268228D01*
X29594000Y34268228D01*
X29594746Y34260336D01*
X29598161Y34224210D01*
X29598720Y34212352D01*
X29598720Y30956547D01*
X29598193Y30945364D01*
X29596518Y30937871D01*
X29596767Y30929945D01*
X29596767Y30929944D01*
X29598658Y30869794D01*
X29598720Y30865835D01*
X29598720Y30837924D01*
X29599217Y30833990D01*
X29599217Y30833989D01*
X29599225Y30833924D01*
X29600158Y30822087D01*
X29601547Y30777891D01*
X29607198Y30758441D01*
X29611207Y30739080D01*
X29613746Y30718983D01*
X29616665Y30711612D01*
X29616665Y30711610D01*
X29630024Y30677868D01*
X29633869Y30666638D01*
X29646202Y30624187D01*
X29650235Y30617368D01*
X29650237Y30617363D01*
X29656513Y30606752D01*
X29665208Y30589004D01*
X29672668Y30570163D01*
X29677330Y30563747D01*
X29677330Y30563746D01*
X29698656Y30534393D01*
X29705172Y30524473D01*
X29727678Y30486418D01*
X29741999Y30472097D01*
X29754839Y30457064D01*
X29766748Y30440673D01*
X29772854Y30435622D01*
X29800825Y30412482D01*
X29809604Y30404492D01*
X33282878Y26931218D01*
X33316904Y26868906D01*
X33319092Y26855297D01*
X33336458Y26690072D01*
X33395473Y26508444D01*
X33490960Y26343056D01*
X33618747Y26201134D01*
X33773248Y26088882D01*
X33779276Y26086198D01*
X33779278Y26086197D01*
X33941681Y26013891D01*
X33947712Y26011206D01*
X34041112Y25991353D01*
X34128056Y25972872D01*
X34128061Y25972872D01*
X34134513Y25971500D01*
X34325487Y25971500D01*
X34331939Y25972872D01*
X34331944Y25972872D01*
X34418888Y25991353D01*
X34512288Y26011206D01*
X34518319Y26013891D01*
X34680722Y26086197D01*
X34680724Y26086198D01*
X34686752Y26088882D01*
X34841253Y26201134D01*
X34969040Y26343056D01*
X35064527Y26508444D01*
X35123542Y26690072D01*
X35143504Y26880000D01*
X35123542Y27069928D01*
X35064527Y27251556D01*
X34969040Y27416944D01*
X34841253Y27558866D01*
X34686752Y27671118D01*
X34680724Y27673802D01*
X34680722Y27673803D01*
X34518319Y27746109D01*
X34518318Y27746109D01*
X34512288Y27748794D01*
X34418888Y27768647D01*
X34331944Y27787128D01*
X34331939Y27787128D01*
X34325487Y27788500D01*
X34269594Y27788500D01*
X34201473Y27808502D01*
X34180499Y27825405D01*
X31002431Y31003474D01*
X30968405Y31065786D01*
X30973470Y31136602D01*
X31016017Y31193437D01*
X31082537Y31218248D01*
X31151911Y31203157D01*
X31160426Y31198063D01*
X31245935Y31142214D01*
X31385338Y31099993D01*
X31530990Y31098594D01*
X31538658Y31100478D01*
X31538662Y31100478D01*
X31588432Y31112703D01*
X31588439Y31112705D01*
X31591732Y31113514D01*
X33373641Y31762076D01*
X33429763Y31789691D01*
X33540439Y31884385D01*
X33566932Y31924948D01*
X33615182Y31998822D01*
X33615184Y31998825D01*
X33620089Y32006336D01*
X33662310Y32145739D01*
X33663709Y32291391D01*
X33661480Y32300469D01*
X33649600Y32348833D01*
X33649598Y32348840D01*
X33648789Y32352133D01*
X33000227Y34134042D01*
X32972612Y34190164D01*
X32899122Y34276057D01*
X32883756Y34294017D01*
X32883755Y34294018D01*
X32877918Y34300840D01*
X32820845Y34338116D01*
X32763481Y34375583D01*
X32763478Y34375585D01*
X32755967Y34380490D01*
X32616564Y34422711D01*
X32574717Y34423113D01*
X32546830Y34423381D01*
X32478905Y34444036D01*
X32432930Y34498136D01*
X32423502Y34568504D01*
X32435081Y34605196D01*
X32446298Y34627891D01*
X32513628Y34849500D01*
X32543860Y35079130D01*
X32545547Y35148171D01*
X32539252Y35224737D01*
X32526993Y35373853D01*
X32526992Y35373859D01*
X32526569Y35379004D01*
X32470145Y35603638D01*
X32462993Y35620087D01*
X32379850Y35811303D01*
X32379848Y35811306D01*
X32377790Y35816040D01*
X32251984Y36010506D01*
X32096107Y36181813D01*
X32092056Y36185012D01*
X32092052Y36185016D01*
X31918397Y36322160D01*
X31918392Y36322163D01*
X31914343Y36325361D01*
X31909827Y36327854D01*
X31909824Y36327856D01*
X31716099Y36434798D01*
X31716095Y36434800D01*
X31711575Y36437295D01*
X31706706Y36439019D01*
X31706702Y36439021D01*
X31498123Y36512883D01*
X31498119Y36512884D01*
X31493248Y36514609D01*
X31488155Y36515516D01*
X31488152Y36515517D01*
X31270315Y36554320D01*
X31270309Y36554321D01*
X31265226Y36555226D01*
X31192316Y36556117D01*
X31038801Y36557992D01*
X31038799Y36557992D01*
X31033631Y36558055D01*
X30804684Y36523021D01*
X30584534Y36451065D01*
X30579946Y36448677D01*
X30579942Y36448675D01*
X30553285Y36434798D01*
X30379092Y36344119D01*
X30374959Y36341016D01*
X30374956Y36341014D01*
X30349845Y36322160D01*
X30193875Y36205054D01*
X30033859Y36037607D01*
X30030945Y36033335D01*
X30030944Y36033334D01*
X30015372Y36010506D01*
X29903339Y35846272D01*
X29805822Y35636190D01*
X29743927Y35413002D01*
X29719315Y35182702D01*
X29719612Y35177549D01*
X29719612Y35177546D01*
X29725287Y35079130D01*
X29732647Y34951474D01*
X29733786Y34946421D01*
X29733786Y34946419D01*
X29774265Y34766798D01*
X29769729Y34695947D01*
X29743199Y34652846D01*
X29715634Y34623492D01*
X29711815Y34616546D01*
X29711813Y34616543D01*
X29705872Y34605737D01*
X29695021Y34589218D01*
X29682606Y34573212D01*
X29679461Y34565943D01*
X29679458Y34565939D01*
X29665046Y34532634D01*
X29659829Y34521984D01*
X29638525Y34483231D01*
X29636554Y34475556D01*
X29636554Y34475555D01*
X29633487Y34463609D01*
X29627083Y34444905D01*
X29619039Y34426316D01*
X29617800Y34418493D01*
X29617797Y34418483D01*
X29612121Y34382647D01*
X29609715Y34371027D01*
X29598720Y34328201D01*
X29598720Y34307947D01*
X29597169Y34288237D01*
X29594000Y34268228D01*
X25078500Y34268228D01*
X25078500Y38540500D01*
X25098502Y38608621D01*
X25152158Y38655114D01*
X25204500Y38666500D01*
X25393134Y38666500D01*
X25455316Y38673255D01*
X25591705Y38724385D01*
X25708261Y38811739D01*
X25795615Y38928295D01*
X25846745Y39064684D01*
X25853500Y39126866D01*
X25853500Y41023134D01*
X25846745Y41085316D01*
X25795615Y41221705D01*
X25708261Y41338261D01*
X25675649Y41362702D01*
X27479315Y41362702D01*
X27479612Y41357549D01*
X27479612Y41357546D01*
X27487929Y41213297D01*
X27492647Y41131474D01*
X27493784Y41126428D01*
X27493785Y41126422D01*
X27524941Y40988173D01*
X27543566Y40905529D01*
X27545508Y40900747D01*
X27545509Y40900743D01*
X27613476Y40733362D01*
X27630704Y40690934D01*
X27751721Y40493452D01*
X27903367Y40318387D01*
X28081569Y40170441D01*
X28151579Y40129531D01*
X28256293Y40068341D01*
X28305017Y40016703D01*
X28318088Y39946920D01*
X28291357Y39881148D01*
X28274645Y39863822D01*
X28221463Y39818319D01*
X28216555Y39810804D01*
X28146720Y39703882D01*
X28146718Y39703879D01*
X28141813Y39696368D01*
X28099592Y39556965D01*
X28098193Y39411313D01*
X28113113Y39350571D01*
X28761675Y37568662D01*
X28789290Y37512540D01*
X28883984Y37401864D01*
X28891499Y37396956D01*
X28998421Y37327121D01*
X28998424Y37327119D01*
X29005935Y37322214D01*
X29145338Y37279993D01*
X29290990Y37278594D01*
X29298658Y37280478D01*
X29298662Y37280478D01*
X29348432Y37292703D01*
X29348439Y37292705D01*
X29351732Y37293514D01*
X31133641Y37942076D01*
X31189763Y37969691D01*
X31300439Y38064385D01*
X31326932Y38104948D01*
X31375182Y38178822D01*
X31375184Y38178825D01*
X31380089Y38186336D01*
X31422310Y38325739D01*
X31423709Y38471391D01*
X31408789Y38532133D01*
X30760227Y40314042D01*
X30732612Y40370164D01*
X30637918Y40480840D01*
X30597355Y40507333D01*
X30523481Y40555583D01*
X30523478Y40555585D01*
X30515967Y40560490D01*
X30376564Y40602711D01*
X30334717Y40603113D01*
X30306830Y40603381D01*
X30238905Y40624036D01*
X30192930Y40678136D01*
X30183502Y40748504D01*
X30195081Y40785196D01*
X30206298Y40807891D01*
X30273628Y41029500D01*
X30303860Y41259130D01*
X30304562Y41287843D01*
X30305465Y41324806D01*
X30305465Y41324810D01*
X30305547Y41328171D01*
X30297536Y41425615D01*
X30286993Y41553853D01*
X30286992Y41553859D01*
X30286569Y41559004D01*
X30258357Y41671321D01*
X30231404Y41778627D01*
X30231403Y41778631D01*
X30230145Y41783638D01*
X30228086Y41788374D01*
X30139850Y41991303D01*
X30139848Y41991306D01*
X30137790Y41996040D01*
X30011984Y42190506D01*
X29856107Y42361813D01*
X29852056Y42365012D01*
X29852052Y42365016D01*
X29678397Y42502160D01*
X29678392Y42502163D01*
X29674343Y42505361D01*
X29669827Y42507854D01*
X29669824Y42507856D01*
X29476099Y42614798D01*
X29476095Y42614800D01*
X29471575Y42617295D01*
X29466706Y42619019D01*
X29466702Y42619021D01*
X29258123Y42692883D01*
X29258119Y42692884D01*
X29253248Y42694609D01*
X29248155Y42695516D01*
X29248152Y42695517D01*
X29030315Y42734320D01*
X29030309Y42734321D01*
X29025226Y42735226D01*
X28952316Y42736117D01*
X28798801Y42737992D01*
X28798799Y42737992D01*
X28793631Y42738055D01*
X28564684Y42703021D01*
X28344534Y42631065D01*
X28339946Y42628677D01*
X28339942Y42628675D01*
X28143681Y42526508D01*
X28139092Y42524119D01*
X28134959Y42521016D01*
X28134956Y42521014D01*
X27958010Y42388159D01*
X27953875Y42385054D01*
X27793859Y42217607D01*
X27790945Y42213335D01*
X27790944Y42213334D01*
X27775372Y42190506D01*
X27663339Y42026272D01*
X27565822Y41816190D01*
X27503927Y41593002D01*
X27479315Y41362702D01*
X25675649Y41362702D01*
X25591705Y41425615D01*
X25455316Y41476745D01*
X25393134Y41483500D01*
X23496866Y41483500D01*
X23434684Y41476745D01*
X23298295Y41425615D01*
X23181739Y41338261D01*
X23094385Y41221705D01*
X23091233Y41213297D01*
X23091232Y41213295D01*
X23070538Y41158094D01*
X23027897Y41101329D01*
X22961335Y41076629D01*
X22891986Y41091836D01*
X22869167Y41108334D01*
X22868887Y41108642D01*
X22863730Y41112715D01*
X22691177Y41248989D01*
X22691172Y41248992D01*
X22687123Y41252190D01*
X22682607Y41254683D01*
X22682604Y41254685D01*
X22488879Y41361627D01*
X22488875Y41361629D01*
X22484355Y41364124D01*
X22479486Y41365848D01*
X22479482Y41365850D01*
X22270903Y41439712D01*
X22270899Y41439713D01*
X22266028Y41441438D01*
X22260935Y41442345D01*
X22260932Y41442346D01*
X22043095Y41481149D01*
X22043089Y41481150D01*
X22038006Y41482055D01*
X21965096Y41482946D01*
X21811581Y41484821D01*
X21811579Y41484821D01*
X21806411Y41484884D01*
X21577464Y41449850D01*
X21357314Y41377894D01*
X21352726Y41375506D01*
X21352722Y41375504D01*
X21156461Y41273337D01*
X21151872Y41270948D01*
X21147739Y41267845D01*
X21147736Y41267843D01*
X20972993Y41136642D01*
X20966655Y41131883D01*
X20963083Y41128145D01*
X20829323Y40988173D01*
X20806639Y40964436D01*
X20803725Y40960164D01*
X20803724Y40960163D01*
X20759463Y40895279D01*
X20676119Y40773101D01*
X20578602Y40563019D01*
X20516707Y40339831D01*
X20492095Y40109531D01*
X20492392Y40104378D01*
X20492392Y40104375D01*
X20502109Y39935848D01*
X20505427Y39878303D01*
X20506564Y39873257D01*
X20506565Y39873251D01*
X20535007Y39747046D01*
X20556346Y39652358D01*
X20558288Y39647576D01*
X20558289Y39647572D01*
X20610385Y39519275D01*
X20643484Y39437763D01*
X20764501Y39240281D01*
X20916147Y39065216D01*
X21094349Y38917270D01*
X21294322Y38800416D01*
X21510694Y38717791D01*
X21515760Y38716760D01*
X21515761Y38716760D01*
X21568846Y38705960D01*
X21737656Y38671615D01*
X21867089Y38666869D01*
X21963949Y38663317D01*
X21963953Y38663317D01*
X21969113Y38663128D01*
X21974233Y38663784D01*
X21974235Y38663784D01*
X22048166Y38673255D01*
X22198847Y38692558D01*
X22203795Y38694043D01*
X22203802Y38694044D01*
X22415747Y38757631D01*
X22420690Y38759114D01*
X22425324Y38761384D01*
X22624049Y38858738D01*
X22624052Y38858740D01*
X22628684Y38861009D01*
X22817243Y38995506D01*
X22862309Y39040415D01*
X22924681Y39074331D01*
X22995487Y39069143D01*
X23052249Y39026497D01*
X23069231Y38995393D01*
X23083735Y38956705D01*
X23094385Y38928295D01*
X23181739Y38811739D01*
X23298295Y38724385D01*
X23434684Y38673255D01*
X23496866Y38666500D01*
X23685500Y38666500D01*
X23753621Y38646498D01*
X23800114Y38592842D01*
X23811500Y38540500D01*
X23811500Y30107409D01*
X23791498Y30039288D01*
X23737842Y29992795D01*
X23667568Y29982691D01*
X23634252Y29992302D01*
X23558323Y30026108D01*
X23558315Y30026111D01*
X23552288Y30028794D01*
X23458887Y30048647D01*
X23371944Y30067128D01*
X23371939Y30067128D01*
X23365487Y30068500D01*
X23309594Y30068500D01*
X23241473Y30088502D01*
X23220499Y30105405D01*
X16065405Y37260500D01*
X16031379Y37322812D01*
X16028500Y37349595D01*
X16028500Y38758248D01*
X16048502Y38826369D01*
X16099068Y38871399D01*
X16106316Y38874950D01*
X16114043Y38878735D01*
X16114047Y38878737D01*
X16118684Y38881009D01*
X16122888Y38884007D01*
X16122892Y38884010D01*
X16224804Y38956703D01*
X16307243Y39015506D01*
X16352309Y39060415D01*
X16414681Y39094331D01*
X16485487Y39089143D01*
X16542249Y39046497D01*
X16559231Y39015393D01*
X16584385Y38948295D01*
X16671739Y38831739D01*
X16788295Y38744385D01*
X16924684Y38693255D01*
X16986866Y38686500D01*
X18883134Y38686500D01*
X18945316Y38693255D01*
X19081705Y38744385D01*
X19198261Y38831739D01*
X19285615Y38948295D01*
X19336745Y39084684D01*
X19343500Y39146866D01*
X19343500Y41043134D01*
X19336745Y41105316D01*
X19285615Y41241705D01*
X19198261Y41358261D01*
X19081705Y41445615D01*
X18945316Y41496745D01*
X18883134Y41503500D01*
X16986866Y41503500D01*
X16924684Y41496745D01*
X16788295Y41445615D01*
X16671739Y41358261D01*
X16584385Y41241705D01*
X16581233Y41233297D01*
X16581232Y41233295D01*
X16560538Y41178094D01*
X16517897Y41121329D01*
X16451335Y41096629D01*
X16381986Y41111836D01*
X16359167Y41128334D01*
X16358887Y41128642D01*
X16296270Y41178094D01*
X16181177Y41268989D01*
X16181172Y41268992D01*
X16177123Y41272190D01*
X16172607Y41274683D01*
X16172604Y41274685D01*
X15978879Y41381627D01*
X15978875Y41381629D01*
X15974355Y41384124D01*
X15969486Y41385848D01*
X15969482Y41385850D01*
X15760903Y41459712D01*
X15760899Y41459713D01*
X15756028Y41461438D01*
X15750935Y41462345D01*
X15750932Y41462346D01*
X15533095Y41501149D01*
X15533089Y41501150D01*
X15528006Y41502055D01*
X15455096Y41502946D01*
X15301581Y41504821D01*
X15301579Y41504821D01*
X15296411Y41504884D01*
X15067464Y41469850D01*
X14847314Y41397894D01*
X14842726Y41395506D01*
X14842722Y41395504D01*
X14646461Y41293337D01*
X14641872Y41290948D01*
X14637739Y41287845D01*
X14637736Y41287843D01*
X14464927Y41158094D01*
X14456655Y41151883D01*
X14296639Y40984436D01*
X14166119Y40793101D01*
X14068602Y40583019D01*
X14006707Y40359831D01*
X13982095Y40129531D01*
X12113125Y40129531D01*
X12709038Y41766787D01*
X12709849Y41770087D01*
X12722074Y41819857D01*
X12722074Y41819861D01*
X12723958Y41827529D01*
X12722559Y41973181D01*
X12680338Y42112584D01*
X12675433Y42120095D01*
X12675431Y42120098D01*
X12605596Y42227020D01*
X12600688Y42234535D01*
X12490012Y42329229D01*
X12433890Y42356844D01*
X10651981Y43005406D01*
X10648688Y43006215D01*
X10648681Y43006217D01*
X10598911Y43018442D01*
X10598907Y43018442D01*
X10591239Y43020326D01*
X10445587Y43018927D01*
X10306184Y42976706D01*
X10298673Y42971801D01*
X10298670Y42971799D01*
X10224796Y42923549D01*
X10184233Y42897056D01*
X10089539Y42786380D01*
X10061924Y42730258D01*
X9413362Y40948349D01*
X9412553Y40945056D01*
X9412551Y40945049D01*
X9401669Y40900743D01*
X9398442Y40887607D01*
X9399841Y40741955D01*
X9442062Y40602552D01*
X9446967Y40595041D01*
X9446969Y40595038D01*
X9467882Y40563019D01*
X9521712Y40480601D01*
X9528534Y40474764D01*
X9528535Y40474763D01*
X9576849Y40433426D01*
X9615606Y40373942D01*
X9616051Y40302947D01*
X9578042Y40242981D01*
X9553115Y40225924D01*
X9439341Y40166697D01*
X9435208Y40163594D01*
X9435205Y40163592D01*
X9258259Y40030737D01*
X9254124Y40027632D01*
X9250552Y40023894D01*
X9116361Y39883471D01*
X9094108Y39860185D01*
X9091194Y39855913D01*
X9091193Y39855912D01*
X9017817Y39748347D01*
X8963588Y39668850D01*
X8866071Y39458768D01*
X8804176Y39235580D01*
X8779564Y39005280D01*
X-3709691Y39005280D01*
X-3463142Y39290895D01*
X-3275742Y39507989D01*
X-3272799Y39511281D01*
X-2535734Y40306972D01*
X-2532677Y40310158D01*
X-1768213Y41079503D01*
X-1765046Y41082581D01*
X-1499708Y41331525D01*
X-974057Y41824699D01*
X-970788Y41827659D01*
X-961900Y41835430D01*
X-555816Y42190506D01*
X-154311Y42541578D01*
X-150936Y42544426D01*
X690052Y43229293D01*
X693524Y43232021D01*
X1558006Y43887008D01*
X1561572Y43889613D01*
X2448480Y44513910D01*
X2452135Y44516388D01*
X3360360Y45109214D01*
X3364100Y45111563D01*
X3534329Y45214355D01*
X4292546Y45672203D01*
X4296365Y45674419D01*
X4571101Y45827445D01*
X5243927Y46202204D01*
X5247795Y46204270D01*
X6213242Y46698514D01*
X6217163Y46700435D01*
X7199345Y47160550D01*
X7203376Y47162353D01*
X7473523Y47277542D01*
X8201070Y47587765D01*
X8205121Y47589409D01*
X9217123Y47979606D01*
X9221270Y47981122D01*
X9401717Y48043526D01*
X10246314Y48335613D01*
X10250466Y48336969D01*
X11287311Y48655327D01*
X11291555Y48656549D01*
X11421143Y48691419D01*
X12338882Y48938371D01*
X12343137Y48939436D01*
X13399777Y49184404D01*
X13404058Y49185317D01*
X14468549Y49393093D01*
X14472897Y49393863D01*
X14625566Y49418143D01*
X15544053Y49564216D01*
X15548383Y49564827D01*
X16624837Y49697540D01*
X16629203Y49698002D01*
X17003331Y49730867D01*
X17709669Y49792914D01*
X17714074Y49793223D01*
X18265180Y49822223D01*
X18797175Y49850217D01*
X18801537Y49850370D01*
X19445782Y49861661D01*
X19885992Y49869376D01*
X19890408Y49869376D01*
X20330618Y49861661D01*
G37*
%TD.AperFunction*%
%TD*%
M02*
