%TF.GenerationSoftware,KiCad,Pcbnew,(6.0.5)*%
%TF.CreationDate,2024-03-24T17:12:35+02:00*%
%TF.ProjectId,Sensor Subsystem,53656e73-6f72-4205-9375-627379737465,rev?*%
%TF.SameCoordinates,Original*%
%TF.FileFunction,Soldermask,Top*%
%TF.FilePolarity,Negative*%
%FSLAX46Y46*%
G04 Gerber Fmt 4.6, Leading zero omitted, Abs format (unit mm)*
G04 Created by KiCad (PCBNEW (6.0.5)) date 2024-03-24 17:12:35*
%MOMM*%
%LPD*%
G01*
G04 APERTURE LIST*
G04 Aperture macros list*
%AMRoundRect*
0 Rectangle with rounded corners*
0 $1 Rounding radius*
0 $2 $3 $4 $5 $6 $7 $8 $9 X,Y pos of 4 corners*
0 Add a 4 corners polygon primitive as box body*
4,1,4,$2,$3,$4,$5,$6,$7,$8,$9,$2,$3,0*
0 Add four circle primitives for the rounded corners*
1,1,$1+$1,$2,$3*
1,1,$1+$1,$4,$5*
1,1,$1+$1,$6,$7*
1,1,$1+$1,$8,$9*
0 Add four rect primitives between the rounded corners*
20,1,$1+$1,$2,$3,$4,$5,0*
20,1,$1+$1,$4,$5,$6,$7,0*
20,1,$1+$1,$6,$7,$8,$9,0*
20,1,$1+$1,$8,$9,$2,$3,0*%
%AMRotRect*
0 Rectangle, with rotation*
0 The origin of the aperture is its center*
0 $1 length*
0 $2 width*
0 $3 Rotation angle, in degrees counterclockwise*
0 Add horizontal line*
21,1,$1,$2,0,0,$3*%
%AMFreePoly0*
4,1,22,0.500000,-0.750000,0.000000,-0.750000,0.000000,-0.745033,-0.079941,-0.743568,-0.215256,-0.701293,-0.333266,-0.622738,-0.424486,-0.514219,-0.481581,-0.384460,-0.499164,-0.250000,-0.500000,-0.250000,-0.500000,0.250000,-0.499164,0.250000,-0.499963,0.256109,-0.478152,0.396186,-0.417904,0.524511,-0.324060,0.630769,-0.204165,0.706417,-0.067858,0.745374,0.000000,0.744959,0.000000,0.750000,
0.500000,0.750000,0.500000,-0.750000,0.500000,-0.750000,$1*%
%AMFreePoly1*
4,1,20,0.000000,0.744959,0.073905,0.744508,0.209726,0.703889,0.328688,0.626782,0.421226,0.519385,0.479903,0.390333,0.500000,0.250000,0.500000,-0.250000,0.499851,-0.262216,0.476331,-0.402017,0.414519,-0.529596,0.319384,-0.634700,0.198574,-0.708877,0.061801,-0.746166,0.000000,-0.745033,0.000000,-0.750000,-0.500000,-0.750000,-0.500000,0.750000,0.000000,0.750000,0.000000,0.744959,
0.000000,0.744959,$1*%
G04 Aperture macros list end*
%ADD10RoundRect,0.200000X-0.200000X-0.275000X0.200000X-0.275000X0.200000X0.275000X-0.200000X0.275000X0*%
%ADD11RoundRect,0.225000X-0.250000X0.225000X-0.250000X-0.225000X0.250000X-0.225000X0.250000X0.225000X0*%
%ADD12RoundRect,0.200000X0.200000X0.275000X-0.200000X0.275000X-0.200000X-0.275000X0.200000X-0.275000X0*%
%ADD13RoundRect,0.150000X0.150000X-0.587500X0.150000X0.587500X-0.150000X0.587500X-0.150000X-0.587500X0*%
%ADD14FreePoly0,90.000000*%
%ADD15FreePoly1,90.000000*%
%ADD16RotRect,1.800000X1.800000X250.000000*%
%ADD17C,1.800000*%
%ADD18RoundRect,0.200000X0.275000X-0.200000X0.275000X0.200000X-0.275000X0.200000X-0.275000X-0.200000X0*%
%ADD19R,1.700000X1.700000*%
%ADD20O,1.700000X1.700000*%
%ADD21R,2.000000X2.000000*%
%ADD22C,1.320800*%
%ADD23R,1.320800X1.320800*%
%ADD24R,1.117600X0.482600*%
%ADD25RoundRect,0.225000X0.250000X-0.225000X0.250000X0.225000X-0.250000X0.225000X-0.250000X-0.225000X0*%
%ADD26R,1.800000X1.800000*%
%ADD27RotRect,1.800000X1.800000X110.000000*%
%ADD28RoundRect,0.225000X0.225000X0.250000X-0.225000X0.250000X-0.225000X-0.250000X0.225000X-0.250000X0*%
G04 APERTURE END LIST*
D10*
%TO.C,R18*%
X6566400Y22860000D03*
X8216400Y22860000D03*
%TD*%
D11*
%TO.C,C3*%
X5411000Y27597000D03*
X5411000Y26047000D03*
%TD*%
D12*
%TO.C,R4*%
X45960800Y20828000D03*
X44310800Y20828000D03*
%TD*%
%TO.C,R10*%
X43063200Y30896000D03*
X41413200Y30896000D03*
%TD*%
D13*
%TO.C,Q2*%
X13540200Y29458500D03*
X15440200Y29458500D03*
X14490200Y31333500D03*
%TD*%
D14*
%TO.C,JP4*%
X39100000Y29070000D03*
D15*
X39100000Y30370000D03*
%TD*%
D11*
%TO.C,C8*%
X26390200Y18559000D03*
X26390200Y17009000D03*
%TD*%
D10*
%TO.C,R17*%
X24715200Y22184000D03*
X26365200Y22184000D03*
%TD*%
D16*
%TO.C,U3*%
X11061200Y41357568D03*
D17*
X10192469Y38970749D03*
%TD*%
D18*
%TO.C,R13*%
X39110000Y25485000D03*
X39110000Y27135000D03*
%TD*%
D19*
%TO.C,J1*%
X3388200Y2789000D03*
D20*
X3388200Y5329000D03*
X5928200Y2789000D03*
X5928200Y5329000D03*
X8468200Y2789000D03*
X8468200Y5329000D03*
X11008200Y2789000D03*
X11008200Y5329000D03*
X13548200Y2789000D03*
X13548200Y5329000D03*
X16088200Y2789000D03*
X16088200Y5329000D03*
X18628200Y2789000D03*
X18628200Y5329000D03*
X21168200Y2789000D03*
X21168200Y5329000D03*
X23708200Y2789000D03*
X23708200Y5329000D03*
X26248200Y2789000D03*
X26248200Y5329000D03*
X28788200Y2789000D03*
X28788200Y5329000D03*
X31328200Y2789000D03*
X31328200Y5329000D03*
X33868200Y2789000D03*
X33868200Y5329000D03*
X36408200Y2789000D03*
X36408200Y5329000D03*
%TD*%
D21*
%TO.C,TP12*%
X30861000Y14224000D03*
%TD*%
D18*
%TO.C,R2*%
X11490200Y24509000D03*
X11490200Y26159000D03*
%TD*%
D14*
%TO.C,JP6*%
X2830000Y29730000D03*
D15*
X2830000Y31030000D03*
%TD*%
D18*
%TO.C,R7*%
X35920000Y25625000D03*
X35920000Y27275000D03*
%TD*%
D22*
%TO.C,RV1*%
X38303200Y16040100D03*
X38303200Y18580100D03*
D23*
X38303200Y21120100D03*
%TD*%
D21*
%TO.C,TP4*%
X32740600Y19964400D03*
%TD*%
D24*
%TO.C,U4*%
X25400000Y9901999D03*
X25400000Y11802001D03*
X23012400Y10852000D03*
%TD*%
D18*
%TO.C,R9*%
X-439000Y25947000D03*
X-439000Y27597000D03*
%TD*%
D21*
%TO.C,TP1*%
X45593000Y28966400D03*
%TD*%
D12*
%TO.C,R16*%
X31330400Y23368000D03*
X29680400Y23368000D03*
%TD*%
D22*
%TO.C,RV2*%
X15825200Y16205200D03*
X15825200Y18745200D03*
D23*
X15825200Y21285200D03*
%TD*%
D21*
%TO.C,TP6*%
X5489600Y19255200D03*
%TD*%
D25*
%TO.C,C12*%
X27914600Y10127800D03*
X27914600Y11677800D03*
%TD*%
D14*
%TO.C,JP2*%
X18090200Y30196000D03*
D15*
X18090200Y31496000D03*
%TD*%
D26*
%TO.C,U2*%
X24445000Y40075000D03*
D17*
X21905000Y40075000D03*
%TD*%
D18*
%TO.C,R8*%
X18090200Y25909000D03*
X18090200Y27559000D03*
%TD*%
D10*
%TO.C,R11*%
X24215200Y30846000D03*
X25865200Y30846000D03*
%TD*%
D27*
%TO.C,CR1*%
X32000951Y32761352D03*
D17*
X31132220Y35148171D03*
%TD*%
D27*
%TO.C,U1*%
X29760951Y38941352D03*
D17*
X28892220Y41328171D03*
%TD*%
D18*
%TO.C,R3*%
X-6477000Y18468200D03*
X-6477000Y20118200D03*
%TD*%
D14*
%TO.C,JP1*%
X35900000Y29070000D03*
D15*
X35900000Y30370000D03*
%TD*%
D12*
%TO.C,R5*%
X15415200Y26034000D03*
X13765200Y26034000D03*
%TD*%
D11*
%TO.C,C5*%
X26340200Y26609000D03*
X26340200Y25059000D03*
%TD*%
%TO.C,C2*%
X23952200Y26509000D03*
X23952200Y24959000D03*
%TD*%
D10*
%TO.C,R12*%
X6245000Y29700000D03*
X7895000Y29700000D03*
%TD*%
D25*
%TO.C,C13*%
X14300200Y9385000D03*
X14300200Y10935000D03*
%TD*%
D13*
%TO.C,Q1*%
X43627000Y24066500D03*
X45527000Y24066500D03*
X44577000Y25941500D03*
%TD*%
D21*
%TO.C,TP3*%
X-6019800Y30052800D03*
%TD*%
D11*
%TO.C,C7*%
X29235400Y20536200D03*
X29235400Y18986200D03*
%TD*%
D14*
%TO.C,JP5*%
X21340200Y30196000D03*
D15*
X21340200Y31496000D03*
%TD*%
D11*
%TO.C,C1*%
X30288200Y28448000D03*
X30288200Y26898000D03*
%TD*%
D22*
%TO.C,RV3*%
X508000Y16141700D03*
X508000Y18681700D03*
D23*
X508000Y21221700D03*
%TD*%
D28*
%TO.C,C10*%
X21577600Y9144000D03*
X20027600Y9144000D03*
%TD*%
D18*
%TO.C,R15*%
X2411000Y25947000D03*
X2411000Y27597000D03*
%TD*%
D16*
%TO.C,CR3*%
X8841200Y35207568D03*
D17*
X7972469Y32820749D03*
%TD*%
D18*
%TO.C,R14*%
X21340200Y25909000D03*
X21340200Y27559000D03*
%TD*%
D12*
%TO.C,R6*%
X-3596000Y22352000D03*
X-5246000Y22352000D03*
%TD*%
D13*
%TO.C,Q3*%
X-5521000Y25408500D03*
X-3621000Y25408500D03*
X-4571000Y27283500D03*
%TD*%
D21*
%TO.C,TP11*%
X9728200Y14732000D03*
%TD*%
%TO.C,TP2*%
X14300200Y35052000D03*
%TD*%
D14*
%TO.C,JP3*%
X-750000Y29750000D03*
D15*
X-750000Y31050000D03*
%TD*%
D11*
%TO.C,C9*%
X9389600Y19255200D03*
X9389600Y17705200D03*
%TD*%
D18*
%TO.C,R1*%
X42646600Y19495000D03*
X42646600Y21145000D03*
%TD*%
D28*
%TO.C,C11*%
X7963200Y8636000D03*
X6413200Y8636000D03*
%TD*%
D26*
%TO.C,CR2*%
X17935000Y40095000D03*
D17*
X15395000Y40095000D03*
%TD*%
D11*
%TO.C,C6*%
X7911000Y27547000D03*
X7911000Y25997000D03*
%TD*%
D21*
%TO.C,TP7*%
X20904200Y13716000D03*
%TD*%
%TO.C,TP10*%
X32131000Y10293200D03*
%TD*%
D11*
%TO.C,C4*%
X32588200Y28448000D03*
X32588200Y26898000D03*
%TD*%
D21*
%TO.C,TP8*%
X5156200Y12192000D03*
%TD*%
D24*
%TO.C,U5*%
X11430000Y9209999D03*
X11430000Y11110001D03*
X9042400Y10160000D03*
%TD*%
D21*
%TO.C,TP5*%
X21890200Y18134000D03*
%TD*%
M02*
