M48
; DRILL file {KiCad (6.0.5)} date Sun Mar 24 17:12:35 2024
; FORMAT={-:-/ absolute / inch / decimal}
; #@! TF.CreationDate,2024-03-24T17:12:35+02:00
; #@! TF.GenerationSoftware,Kicad,Pcbnew,(6.0.5)
; #@! TF.FileFunction,Plated,1,2,PTH
FMAT,2
INCH
; #@! TA.AperFunction,Plated,PTH,ViaDrill
T1C0.0157
; #@! TA.AperFunction,Plated,PTH,ComponentDrill
T2C0.0320
; #@! TA.AperFunction,Plated,PTH,ComponentDrill
T3C0.0354
; #@! TA.AperFunction,Plated,PTH,ComponentDrill
T4C0.0394
%
G90
G05
T1
X-0.1984Y0.6256
X0.1429Y1.1177
X0.1846Y0.8728
X0.1976Y1.2122
X0.9091Y0.928
X0.9161Y1.148
X1.237Y0.6783
X1.3476Y1.0583
T2
X0.02Y0.8355
X0.02Y0.7355
X0.02Y0.6355
X0.623Y0.838
X0.623Y0.738
X0.623Y0.638
X1.508Y0.8315
X1.508Y0.7315
X1.508Y0.6315
T3
X0.3139Y1.2922
X0.3481Y1.3861
X0.4013Y1.5343
X0.4355Y1.6283
X0.6061Y1.5785
X0.7061Y1.5785
X0.8624Y1.5778
X0.9624Y1.5778
X1.1375Y1.6271
X1.1717Y1.5331
X1.2257Y1.3838
X1.2599Y1.2898
T4
X0.1334Y0.2098
X0.1334Y0.1098
X0.2334Y0.2098
X0.2334Y0.1098
X0.3334Y0.2098
X0.3334Y0.1098
X0.4334Y0.2098
X0.4334Y0.1098
X0.5334Y0.2098
X0.5334Y0.1098
X0.6334Y0.2098
X0.6334Y0.1098
X0.7334Y0.2098
X0.7334Y0.1098
X0.8334Y0.2098
X0.8334Y0.1098
X0.9334Y0.2098
X0.9334Y0.1098
X1.0334Y0.2098
X1.0334Y0.1098
X1.1334Y0.2098
X1.1334Y0.1098
X1.2334Y0.2098
X1.2334Y0.1098
X1.3334Y0.2098
X1.3334Y0.1098
X1.4334Y0.2098
X1.4334Y0.1098
T0
M30
